<svg width="66" height="40" viewBox="0 0 66 40" fill="none" xmlns="http://www.w3.org/2000/svg">
<path d="M8.83325 10.657L12.8333 6.65698L16.8333 10.657" stroke="#0049C6" stroke-width="2" stroke-linecap="round" stroke-linejoin="round"/>
<path d="M12.8333 6.65698L12.8333 16.9861" stroke="#0049C6" stroke-width="2" stroke-linecap="round" stroke-linejoin="round"/>
<path d="M30.0882 7.17402V17.3558H27.9355V9.21734H27.8759L25.5442 10.679V8.7699L28.0648 7.17402H30.0882ZM32.354 15.5661V13.8707L36.6047 7.17402H38.0664V9.52061H37.2013L34.5216 13.7614V13.8409H40.5621V15.5661H32.354ZM37.2411 17.3558V15.049L37.2809 14.2983V7.17402H39.2993V17.3558H37.2411ZM47.5696 15.4467V14.9098C47.5696 14.5021 47.6558 14.1276 47.8281 13.7862C48.0038 13.4415 48.2573 13.1664 48.5888 12.9609C48.9235 12.7521 49.3312 12.6477 49.8118 12.6477C50.299 12.6477 50.7083 12.7505 51.0398 12.956C51.3745 13.1615 51.6264 13.4366 51.7954 13.7813C51.9678 14.1226 52.054 14.4988 52.054 14.9098V15.4467C52.054 15.8544 51.9678 16.2306 51.7954 16.5753C51.6231 16.9167 51.3695 17.1901 51.0348 17.3956C50.7 17.6044 50.2924 17.7088 49.8118 17.7088C49.3246 17.7088 48.9152 17.6044 48.5838 17.3956C48.2523 17.1901 48.0005 16.9167 47.8281 16.5753C47.6558 16.2306 47.5696 15.8544 47.5696 15.4467ZM49.0163 14.9098V15.4467C49.0163 15.6821 49.0727 15.9041 49.1853 16.1129C49.3014 16.3217 49.5102 16.4261 49.8118 16.4261C50.1134 16.4261 50.3189 16.3234 50.4282 16.1179C50.5409 15.9124 50.5973 15.6887 50.5973 15.4467V14.9098C50.5973 14.6679 50.5442 14.4425 50.4382 14.2337C50.3321 14.0249 50.1233 13.9205 49.8118 13.9205C49.5135 13.9205 49.3063 14.0249 49.1903 14.2337C49.0743 14.4425 49.0163 14.6679 49.0163 14.9098ZM42.3444 9.62004V9.08311C42.3444 8.67212 42.4323 8.29594 42.6079 7.95456C42.7836 7.60986 43.0371 7.33476 43.3686 7.12927C43.7033 6.92378 44.1077 6.82103 44.5817 6.82103C45.0722 6.82103 45.4832 6.92378 45.8146 7.12927C46.146 7.33476 46.3979 7.60986 46.5703 7.95456C46.7426 8.29594 46.8288 8.67212 46.8288 9.08311V9.62004C46.8288 10.031 46.741 10.4072 46.5653 10.7486C46.393 11.09 46.1394 11.3634 45.8047 11.5689C45.4732 11.7711 45.0656 11.8722 44.5817 11.8722C44.0978 11.8722 43.6884 11.7694 43.3537 11.5639C43.0222 11.3551 42.7703 11.0817 42.598 10.7436C42.429 10.4022 42.3444 10.0277 42.3444 9.62004ZM43.8011 9.08311V9.62004C43.8011 9.86199 43.8575 10.0857 43.9701 10.2912C44.0862 10.4967 44.29 10.5994 44.5817 10.5994C44.8866 10.5994 45.0937 10.4967 45.2031 10.2912C45.3158 10.0857 45.3721 9.86199 45.3721 9.62004V9.08311C45.3721 8.84116 45.3191 8.61578 45.213 8.40697C45.107 8.19816 44.8965 8.09376 44.5817 8.09376C44.2867 8.09376 44.0828 8.19982 43.9701 8.41194C43.8575 8.62406 43.8011 8.84779 43.8011 9.08311ZM43.0007 17.3558L50.0007 7.17402H51.3032L44.3032 17.3558H43.0007Z" fill="#0049C6"/>
<path d="M8.4128 27.8535V26.916H14.9583V27.8535H12.2139V35.6433H11.1571V27.8535H8.4128ZM17.4586 31.7058V35.6433H16.4529V26.916H17.4586V30.1206H17.5438C17.6972 29.7825 17.9274 29.514 18.2342 29.3152C18.5438 29.1135 18.9558 29.0126 19.47 29.0126C19.916 29.0126 20.3066 29.1021 20.6418 29.2811C20.9771 29.4572 21.237 29.7285 21.4217 30.095C21.6092 30.4587 21.7029 30.9217 21.7029 31.4842V35.6433H20.6972V31.5524C20.6972 31.0325 20.5623 30.6305 20.2924 30.3464C20.0254 30.0595 19.6546 29.916 19.1802 29.916C18.8507 29.916 18.5552 29.9856 18.2938 30.1248C18.0353 30.264 17.8308 30.4672 17.6802 30.7342C17.5325 31.0013 17.4586 31.3251 17.4586 31.7058ZM23.5428 35.6433V29.0979H24.5485V35.6433H23.5428ZM24.0541 28.0069C23.8581 28.0069 23.6891 27.9402 23.547 27.8067C23.4078 27.6731 23.3382 27.5126 23.3382 27.3251C23.3382 27.1376 23.4078 26.9771 23.547 26.8436C23.6891 26.7101 23.8581 26.6433 24.0541 26.6433C24.2502 26.6433 24.4178 26.7101 24.557 26.8436C24.699 26.9771 24.77 27.1376 24.77 27.3251C24.77 27.5126 24.699 27.6731 24.557 27.8067C24.4178 27.9402 24.2502 28.0069 24.0541 28.0069ZM31.0268 30.5638L30.1234 30.8194C30.0666 30.6689 29.9828 30.5226 29.872 30.3805C29.764 30.2356 29.6163 30.1163 29.4288 30.0226C29.2413 29.9288 29.0012 29.8819 28.7086 29.8819C28.308 29.8819 27.9742 29.9743 27.7072 30.1589C27.443 30.3408 27.3109 30.5723 27.3109 30.8535C27.3109 31.1035 27.4018 31.301 27.5836 31.4459C27.7654 31.5908 28.0495 31.7115 28.4359 31.8081L29.4075 32.0467C29.9927 32.1888 30.4288 32.4061 30.7157 32.6987C31.0026 32.9885 31.1461 33.3621 31.1461 33.8194C31.1461 34.1944 31.0382 34.5297 30.8222 34.8251C30.6092 35.1206 30.3109 35.3535 29.9274 35.524C29.5438 35.6944 29.0978 35.7797 28.5893 35.7797C27.9217 35.7797 27.3691 35.6348 26.9316 35.345C26.4941 35.0552 26.2171 34.6319 26.1007 34.0751L27.0552 33.8365C27.1461 34.1888 27.318 34.453 27.5708 34.6291C27.8265 34.8052 28.1603 34.8933 28.5722 34.8933C29.041 34.8933 29.4132 34.7939 29.6887 34.595C29.9671 34.3933 30.1063 34.1518 30.1063 33.8706C30.1063 33.6433 30.0268 33.453 29.8677 33.2996C29.7086 33.1433 29.4643 33.0268 29.1347 32.9501L28.0438 32.6944C27.4444 32.5524 27.0041 32.3322 26.7228 32.0339C26.4444 31.7328 26.3052 31.3564 26.3052 30.9047C26.3052 30.5354 26.4089 30.2087 26.6163 29.9246C26.8265 29.6405 27.112 29.4175 27.4728 29.2555C27.8364 29.0936 28.2484 29.0126 28.7086 29.0126C29.3563 29.0126 29.8649 29.1547 30.2342 29.4388C30.6063 29.7229 30.8705 30.0979 31.0268 30.5638ZM37.5179 35.6433L35.5236 29.0979H36.5804L37.9952 34.1092H38.0634L39.4611 29.0979H40.535L41.9156 34.0922H41.9838L43.3986 29.0979H44.4554L42.4611 35.6433H41.4725L40.0406 30.6149H39.9384L38.5065 35.6433H37.5179ZM48.3066 35.7797C47.6759 35.7797 47.1319 35.6405 46.6745 35.3621C46.22 35.0808 45.8691 34.6888 45.622 34.1859C45.3776 33.6802 45.2555 33.0922 45.2555 32.4217C45.2555 31.7513 45.3776 31.1604 45.622 30.649C45.8691 30.1348 46.2129 29.7342 46.6532 29.4473C47.0964 29.1575 47.6134 29.0126 48.2043 29.0126C48.5453 29.0126 48.8819 29.0694 49.2143 29.1831C49.5467 29.2967 49.8492 29.4814 50.122 29.7371C50.3947 29.9899 50.612 30.3251 50.7739 30.7427C50.9359 31.1604 51.0168 31.6746 51.0168 32.2854V32.7115H45.9714V31.8422H49.9941C49.9941 31.4729 49.9203 31.1433 49.7725 30.8535C49.6276 30.5638 49.4203 30.3351 49.1504 30.1675C48.8833 29.9998 48.568 29.916 48.2043 29.916C47.8038 29.916 47.4572 30.0155 47.1646 30.2143C46.8748 30.4104 46.6518 30.666 46.4955 30.9814C46.3393 31.2967 46.2612 31.6348 46.2612 31.9956V32.5751C46.2612 33.0694 46.3464 33.4885 46.5168 33.8322C46.6901 34.1731 46.9302 34.4331 47.237 34.6121C47.5438 34.7882 47.9004 34.8763 48.3066 34.8763C48.5708 34.8763 48.8095 34.8393 49.0225 34.7655C49.2384 34.6888 49.4245 34.5751 49.5808 34.4246C49.737 34.2712 49.8578 34.0808 49.943 33.8535L50.9146 34.1263C50.8123 34.4558 50.6404 34.7456 50.3989 34.9956C50.1575 35.2427 49.8592 35.4359 49.5041 35.5751C49.1489 35.7115 48.7498 35.7797 48.3066 35.7797ZM55.291 35.7797C54.6603 35.7797 54.1163 35.6405 53.6589 35.3621C53.2043 35.0808 52.8535 34.6888 52.6063 34.1859C52.362 33.6802 52.2399 33.0922 52.2399 32.4217C52.2399 31.7513 52.362 31.1604 52.6063 30.649C52.8535 30.1348 53.1972 29.7342 53.6376 29.4473C54.0808 29.1575 54.5978 29.0126 55.1887 29.0126C55.5296 29.0126 55.8663 29.0694 56.1987 29.1831C56.5311 29.2967 56.8336 29.4814 57.1063 29.7371C57.3791 29.9899 57.5964 30.3251 57.7583 30.7427C57.9203 31.1604 58.0012 31.6746 58.0012 32.2854V32.7115H52.9558V31.8422H56.9785C56.9785 31.4729 56.9046 31.1433 56.7569 30.8535C56.612 30.5638 56.4046 30.3351 56.1347 30.1675C55.8677 29.9998 55.5524 29.916 55.1887 29.916C54.7882 29.916 54.4416 30.0155 54.1489 30.2143C53.8592 30.4104 53.6362 30.666 53.4799 30.9814C53.3237 31.2967 53.2455 31.6348 53.2455 31.9956V32.5751C53.2455 33.0694 53.3308 33.4885 53.5012 33.8322C53.6745 34.1731 53.9146 34.4331 54.2214 34.6121C54.5282 34.7882 54.8847 34.8763 55.291 34.8763C55.5552 34.8763 55.7938 34.8393 56.0069 34.7655C56.2228 34.6888 56.4089 34.5751 56.5651 34.4246C56.7214 34.2712 56.8421 34.0808 56.9274 33.8535L57.8989 34.1263C57.7967 34.4558 57.6248 34.7456 57.3833 34.9956C57.1418 35.2427 56.8436 35.4359 56.4884 35.5751C56.1333 35.7115 55.7342 35.7797 55.291 35.7797ZM60.4686 33.2569L60.4515 32.0126H60.6561L63.5197 29.0979H64.764L61.7129 32.1831H61.6276L60.4686 33.2569ZM59.5311 35.6433V26.916H60.5367V35.6433H59.5311ZM63.6901 35.6433L61.1333 32.4047L61.8492 31.7058L64.9686 35.6433H63.6901Z" fill="#171717"/>
</svg>
