<svg width="186" height="24" viewBox="0 0 186 24" fill="none" xmlns="http://www.w3.org/2000/svg">
<path d="M18 19.875H5.0625C2.25 19.875 0 17.625 0 14.8125C0 12.6328 1.40625 10.7344 3.375 10.0664V10.0312C3.375 6.79688 6.01172 4.125 9.28125 4.125C11.0391 4.125 12.6562 4.93359 13.7461 6.19922C14.2734 5.95312 14.8359 5.8125 15.4688 5.8125C17.7891 5.8125 19.6875 7.71094 19.6875 10.0312C19.6875 10.2773 19.6523 10.4883 19.6172 10.7344C21.3047 11.4727 22.5 13.1602 22.5 15.0938C22.5 17.6602 20.4961 19.7344 18 19.875ZM13.2891 8.23828L12.4453 7.28906C11.6719 6.41016 10.5469 5.8125 9.28125 5.8125C6.92578 5.8125 5.0625 7.71094 5.0625 10.0312V11.2617L3.90234 11.6484C2.60156 12.1055 1.6875 13.3711 1.6875 14.8125C1.6875 16.6758 3.16406 18.1875 5.0625 18.1875H17.8945C19.5117 18.1172 20.8125 16.7461 20.8125 15.0938C20.8125 13.8281 20.0391 12.7383 18.9492 12.2812L17.7539 11.7539L17.9648 10.4531C17.9648 10.3125 18 10.1719 18 10.0312C18 8.66016 16.8398 7.5 15.4688 7.5C15.082 7.5 14.7305 7.60547 14.4141 7.74609L13.2891 8.23828Z" fill="#414651"/>
<path d="M43.108 10.2898H40.983C40.9223 9.94129 40.8106 9.63258 40.6477 9.36364C40.4848 9.09091 40.2822 8.85985 40.0398 8.67045C39.7973 8.48106 39.5208 8.33901 39.2102 8.24432C38.9034 8.14583 38.572 8.09659 38.2159 8.09659C37.5833 8.09659 37.0227 8.25568 36.5341 8.57386C36.0455 8.88826 35.6629 9.35038 35.3864 9.96023C35.1098 10.5663 34.9716 11.3068 34.9716 12.1818C34.9716 13.072 35.1098 13.822 35.3864 14.4318C35.6667 15.0379 36.0492 15.4962 36.5341 15.8068C37.0227 16.1136 37.5814 16.267 38.2102 16.267C38.5587 16.267 38.8845 16.2216 39.1875 16.1307C39.4943 16.036 39.7689 15.8977 40.0114 15.7159C40.2576 15.5341 40.464 15.3106 40.6307 15.0455C40.8011 14.7803 40.9186 14.4773 40.983 14.1364L43.108 14.1477C43.0284 14.7008 42.8561 15.2197 42.5909 15.7045C42.3295 16.1894 41.9867 16.6174 41.5625 16.9886C41.1383 17.3561 40.642 17.6439 40.0739 17.8523C39.5057 18.0568 38.875 18.1591 38.1818 18.1591C37.1591 18.1591 36.2462 17.9223 35.4432 17.4489C34.6402 16.9754 34.0076 16.2917 33.5455 15.3977C33.0833 14.5038 32.8523 13.4318 32.8523 12.1818C32.8523 10.928 33.0852 9.85606 33.5511 8.96591C34.017 8.07197 34.6515 7.38826 35.4545 6.91477C36.2576 6.44129 37.1667 6.20455 38.1818 6.20455C38.8295 6.20455 39.4318 6.29545 39.9886 6.47727C40.5455 6.65909 41.0417 6.92614 41.4773 7.27841C41.9129 7.62689 42.2708 8.05492 42.5511 8.5625C42.8352 9.06629 43.0208 9.64205 43.108 10.2898ZM47.0043 6.36364V18H44.9474V6.36364H47.0043ZM52.9261 18.1705C52.0739 18.1705 51.3352 17.983 50.7102 17.608C50.0852 17.233 49.6004 16.7083 49.2557 16.0341C48.9148 15.3598 48.7443 14.572 48.7443 13.6705C48.7443 12.7689 48.9148 11.9792 49.2557 11.3011C49.6004 10.6231 50.0852 10.0966 50.7102 9.72159C51.3352 9.34659 52.0739 9.15909 52.9261 9.15909C53.7784 9.15909 54.517 9.34659 55.142 9.72159C55.767 10.0966 56.25 10.6231 56.5909 11.3011C56.9356 11.9792 57.108 12.7689 57.108 13.6705C57.108 14.572 56.9356 15.3598 56.5909 16.0341C56.25 16.7083 55.767 17.233 55.142 17.608C54.517 17.983 53.7784 18.1705 52.9261 18.1705ZM52.9375 16.5227C53.3996 16.5227 53.786 16.3958 54.0966 16.142C54.4072 15.8845 54.6383 15.5398 54.7898 15.108C54.9451 14.6761 55.0227 14.1951 55.0227 13.6648C55.0227 13.1307 54.9451 12.6477 54.7898 12.2159C54.6383 11.7803 54.4072 11.4337 54.0966 11.1761C53.786 10.9186 53.3996 10.7898 52.9375 10.7898C52.464 10.7898 52.0701 10.9186 51.7557 11.1761C51.4451 11.4337 51.2121 11.7803 51.0568 12.2159C50.9053 12.6477 50.8295 13.1307 50.8295 13.6648C50.8295 14.1951 50.9053 14.6761 51.0568 15.108C51.2121 15.5398 51.4451 15.8845 51.7557 16.142C52.0701 16.3958 52.464 16.5227 52.9375 16.5227ZM64.4162 14.3295V9.27273H66.473V18H64.4787V16.4489H64.3878C64.1908 16.9375 63.867 17.3371 63.4162 17.6477C62.9692 17.9583 62.4181 18.1136 61.7628 18.1136C61.1908 18.1136 60.6851 17.9867 60.2457 17.733C59.8101 17.4754 59.4692 17.1023 59.223 16.6136C58.9768 16.1212 58.8537 15.5265 58.8537 14.8295V9.27273H60.9105V14.5114C60.9105 15.0644 61.062 15.5038 61.3651 15.8295C61.6681 16.1553 62.0658 16.3182 62.5582 16.3182C62.8613 16.3182 63.1548 16.2443 63.4389 16.0966C63.723 15.9489 63.956 15.7292 64.1378 15.4375C64.3234 15.142 64.4162 14.7727 64.4162 14.3295ZM71.8267 18.1534C71.1411 18.1534 70.5275 17.9773 69.9858 17.625C69.4441 17.2727 69.0161 16.7614 68.7017 16.0909C68.3873 15.4205 68.2301 14.6061 68.2301 13.6477C68.2301 12.678 68.3892 11.8598 68.7074 11.1932C69.0294 10.5227 69.4631 10.017 70.0085 9.67614C70.554 9.33144 71.1619 9.15909 71.8324 9.15909C72.3438 9.15909 72.7642 9.24621 73.0938 9.42045C73.4233 9.59091 73.6847 9.79735 73.8778 10.0398C74.071 10.2784 74.2206 10.5038 74.3267 10.7159H74.4119V6.36364H76.4744V18H74.4517V16.625H74.3267C74.2206 16.8371 74.0672 17.0625 73.8665 17.3011C73.6657 17.536 73.4006 17.7367 73.071 17.9034C72.7415 18.0701 72.3267 18.1534 71.8267 18.1534ZM72.4006 16.4659C72.8362 16.4659 73.2074 16.3485 73.5142 16.1136C73.821 15.875 74.054 15.5436 74.2131 15.1193C74.3722 14.6951 74.4517 14.2008 74.4517 13.6364C74.4517 13.072 74.3722 12.5814 74.2131 12.1648C74.0578 11.7481 73.8267 11.4242 73.5199 11.1932C73.2169 10.9621 72.8438 10.8466 72.4006 10.8466C71.9422 10.8466 71.5597 10.9659 71.2528 11.2045C70.946 11.4432 70.715 11.7727 70.5597 12.1932C70.4044 12.6136 70.3267 13.0947 70.3267 13.6364C70.3267 14.1818 70.4044 14.6686 70.5597 15.0966C70.7188 15.5208 70.9517 15.8561 71.2585 16.1023C71.5691 16.3447 71.9498 16.4659 72.4006 16.4659ZM89.0497 9.5625C88.9967 9.06629 88.7732 8.67992 88.3793 8.40341C87.9891 8.12689 87.4815 7.98864 86.8565 7.98864C86.4171 7.98864 86.0402 8.05492 85.7259 8.1875C85.4115 8.32008 85.1709 8.5 85.0043 8.72727C84.8376 8.95455 84.7524 9.21402 84.7486 9.50568C84.7486 9.74811 84.8035 9.95833 84.9134 10.1364C85.027 10.3144 85.1804 10.4659 85.3736 10.5909C85.5668 10.7121 85.7808 10.8144 86.0156 10.8977C86.2505 10.9811 86.4872 11.0511 86.7259 11.108L87.8168 11.3807C88.2562 11.483 88.6785 11.6212 89.0838 11.7955C89.4929 11.9697 89.8584 12.1894 90.1804 12.4545C90.5062 12.7197 90.7637 13.0398 90.9531 13.4148C91.1425 13.7898 91.2372 14.2292 91.2372 14.733C91.2372 15.4148 91.063 16.0152 90.7145 16.5341C90.366 17.0492 89.8622 17.4527 89.2031 17.7443C88.5478 18.0322 87.7543 18.1761 86.8224 18.1761C85.9171 18.1761 85.1312 18.036 84.4645 17.7557C83.8016 17.4754 83.2827 17.0663 82.9077 16.5284C82.5365 15.9905 82.3357 15.3352 82.3054 14.5625H84.3793C84.4096 14.9678 84.5346 15.3049 84.7543 15.5739C84.974 15.8428 85.2599 16.0436 85.6122 16.1761C85.9683 16.3087 86.366 16.375 86.8054 16.375C87.2637 16.375 87.6652 16.3068 88.0099 16.1705C88.3584 16.0303 88.6312 15.8371 88.8281 15.5909C89.0251 15.3409 89.1255 15.0492 89.1293 14.7159C89.1255 14.4129 89.0365 14.1629 88.8622 13.9659C88.688 13.7652 88.4437 13.5985 88.1293 13.4659C87.8187 13.3295 87.455 13.2083 87.0384 13.1023L85.7145 12.7614C84.7562 12.5152 83.9986 12.142 83.4418 11.642C82.8887 11.1383 82.6122 10.4697 82.6122 9.63636C82.6122 8.95076 82.7978 8.35038 83.169 7.83523C83.544 7.32008 84.0535 6.92045 84.6974 6.63636C85.3414 6.34848 86.0705 6.20455 86.8849 6.20455C87.7107 6.20455 88.4342 6.34848 89.0554 6.63636C89.6804 6.92045 90.1709 7.31629 90.527 7.82386C90.883 8.32765 91.0668 8.9072 91.0781 9.5625H89.0497ZM96.8892 18.1705C96.0142 18.1705 95.2585 17.9886 94.6222 17.625C93.9896 17.2576 93.5028 16.7386 93.1619 16.0682C92.821 15.3939 92.6506 14.6004 92.6506 13.6875C92.6506 12.7898 92.821 12.0019 93.1619 11.3239C93.5066 10.642 93.9877 10.1117 94.6051 9.73295C95.2225 9.35038 95.9479 9.15909 96.7812 9.15909C97.3191 9.15909 97.8267 9.24621 98.304 9.42045C98.785 9.59091 99.2093 9.85606 99.5767 10.2159C99.9479 10.5758 100.24 11.0341 100.452 11.5909C100.664 12.1439 100.77 12.803 100.77 13.5682V14.1989H93.6165V12.8125H98.7983C98.7945 12.4186 98.7093 12.0682 98.5426 11.7614C98.3759 11.4508 98.143 11.2064 97.8438 11.0284C97.5483 10.8504 97.2036 10.7614 96.8097 10.7614C96.3892 10.7614 96.0199 10.8636 95.7017 11.0682C95.3835 11.2689 95.1354 11.5341 94.9574 11.8636C94.7831 12.1894 94.6941 12.5473 94.6903 12.9375V14.1477C94.6903 14.6553 94.7831 15.0909 94.9688 15.4545C95.1544 15.8144 95.4138 16.0909 95.7472 16.2841C96.0805 16.4735 96.4706 16.5682 96.9176 16.5682C97.2169 16.5682 97.4877 16.5265 97.7301 16.4432C97.9725 16.3561 98.1828 16.2292 98.3608 16.0625C98.5388 15.8958 98.6733 15.6894 98.7642 15.4432L100.685 15.6591C100.563 16.1667 100.332 16.6098 99.9915 16.9886C99.6544 17.3636 99.2225 17.6553 98.696 17.8636C98.1695 18.0682 97.5672 18.1705 96.8892 18.1705ZM106.317 18.1705C105.446 18.1705 104.697 17.9792 104.072 17.5966C103.451 17.214 102.972 16.6856 102.635 16.0114C102.302 15.3333 102.135 14.553 102.135 13.6705C102.135 12.7841 102.305 12.0019 102.646 11.3239C102.987 10.642 103.468 10.1117 104.089 9.73295C104.714 9.35038 105.453 9.15909 106.305 9.15909C107.014 9.15909 107.641 9.28977 108.186 9.55114C108.735 9.80871 109.173 10.1742 109.499 10.6477C109.824 11.1174 110.01 11.6667 110.055 12.2955H108.089C108.01 11.875 107.821 11.5246 107.521 11.2443C107.226 10.9602 106.83 10.8182 106.334 10.8182C105.913 10.8182 105.544 10.9318 105.226 11.1591C104.908 11.3826 104.66 11.7045 104.482 12.125C104.307 12.5455 104.22 13.0492 104.22 13.6364C104.22 14.2311 104.307 14.7424 104.482 15.1705C104.656 15.5947 104.9 15.9223 105.214 16.1534C105.533 16.3807 105.906 16.4943 106.334 16.4943C106.637 16.4943 106.908 16.4375 107.146 16.3239C107.389 16.2064 107.591 16.0379 107.754 15.8182C107.917 15.5985 108.029 15.3314 108.089 15.017H110.055C110.006 15.6345 109.824 16.1818 109.51 16.6591C109.196 17.1326 108.768 17.5038 108.226 17.7727C107.684 18.0379 107.048 18.1705 106.317 18.1705ZM117.307 14.3295V9.27273H119.364V18H117.369V16.4489H117.278C117.081 16.9375 116.758 17.3371 116.307 17.6477C115.86 17.9583 115.309 18.1136 114.653 18.1136C114.081 18.1136 113.576 17.9867 113.136 17.733C112.701 17.4754 112.36 17.1023 112.114 16.6136C111.867 16.1212 111.744 15.5265 111.744 14.8295V9.27273H113.801V14.5114C113.801 15.0644 113.953 15.5038 114.256 15.8295C114.559 16.1553 114.956 16.3182 115.449 16.3182C115.752 16.3182 116.045 16.2443 116.33 16.0966C116.614 15.9489 116.847 15.7292 117.028 15.4375C117.214 15.142 117.307 14.7727 117.307 14.3295ZM121.479 18V9.27273H123.473V10.7273H123.564C123.723 10.2235 123.996 9.83523 124.382 9.5625C124.772 9.28598 125.217 9.14773 125.717 9.14773C125.831 9.14773 125.958 9.15341 126.098 9.16477C126.242 9.17235 126.361 9.18561 126.456 9.20455V11.0966C126.369 11.0663 126.231 11.0398 126.041 11.017C125.856 10.9905 125.676 10.9773 125.501 10.9773C125.126 10.9773 124.789 11.0587 124.49 11.2216C124.195 11.3807 123.962 11.6023 123.791 11.8864C123.621 12.1705 123.536 12.4981 123.536 12.8693V18H121.479ZM127.822 18V9.27273H129.879V18H127.822ZM128.857 8.03409C128.531 8.03409 128.25 7.92614 128.016 7.71023C127.781 7.49053 127.663 7.22727 127.663 6.92045C127.663 6.60985 127.781 6.34659 128.016 6.13068C128.25 5.91098 128.531 5.80114 128.857 5.80114C129.186 5.80114 129.466 5.91098 129.697 6.13068C129.932 6.34659 130.05 6.60985 130.05 6.92045C130.05 7.22727 129.932 7.49053 129.697 7.71023C129.466 7.92614 129.186 8.03409 128.857 8.03409ZM136.352 9.27273V10.8636H131.335V9.27273H136.352ZM132.574 7.18182H134.631V15.375C134.631 15.6515 134.672 15.8636 134.756 16.0114C134.843 16.1553 134.956 16.2538 135.097 16.3068C135.237 16.3598 135.392 16.3864 135.562 16.3864C135.691 16.3864 135.809 16.3769 135.915 16.358C136.025 16.339 136.108 16.322 136.165 16.3068L136.511 17.9148C136.402 17.9527 136.244 17.9943 136.04 18.0398C135.839 18.0852 135.593 18.1117 135.301 18.1193C134.786 18.1345 134.322 18.0568 133.909 17.8864C133.496 17.7121 133.169 17.4432 132.926 17.0795C132.688 16.7159 132.57 16.2614 132.574 15.7159V7.18182ZM139.351 21.2727C139.071 21.2727 138.811 21.25 138.572 21.2045C138.338 21.1629 138.15 21.1136 138.01 21.0568L138.487 19.4545C138.786 19.5417 139.054 19.5833 139.288 19.5795C139.523 19.5758 139.73 19.5019 139.908 19.358C140.089 19.2178 140.243 18.983 140.368 18.6534L140.544 18.1818L137.379 9.27273H139.561L141.572 15.8636H141.663L143.68 9.27273H145.868L142.374 19.0568C142.211 19.5189 141.995 19.9148 141.726 20.2443C141.457 20.5777 141.127 20.8314 140.737 21.0057C140.351 21.1837 139.889 21.2727 139.351 21.2727Z" fill="#414651"/>
</svg>
