<svg width="186" height="24" viewBox="0 0 186 24" fill="none" xmlns="http://www.w3.org/2000/svg">
<path d="M5.31586 12C5.31586 10.1367 6.79242 8.625 8.69086 8.625C10.5541 8.625 12.0659 10.1367 12.0659 12C12.0659 13.8633 10.5541 15.375 8.69086 15.375C6.79242 15.375 5.31586 13.8633 5.31586 12ZM8.69086 10.3125C7.74164 10.3125 7.00336 11.0859 7.00336 12C7.00336 12.9492 7.74164 13.6875 8.69086 13.6875C9.60492 13.6875 10.3784 12.9492 10.3784 12C10.3784 11.0859 9.60492 10.3125 8.69086 10.3125ZM9.99164 3C10.7651 3 11.433 3.5625 11.6088 4.30078L11.8901 5.46094C12.2065 5.60156 12.4877 5.77734 12.7338 5.95312L13.894 5.60156C14.6323 5.39062 15.4409 5.70703 15.8276 6.375L17.1284 8.66016C17.5151 9.32812 17.3745 10.1719 16.812 10.6992L15.9682 11.5078C15.9682 11.6836 16.0034 11.8594 16.0034 12C16.0034 12.1758 15.9682 12.3516 15.9682 12.4922L16.812 13.3359C17.3745 13.8633 17.5151 14.707 17.1284 15.375L15.8276 17.6602C15.4409 18.3281 14.6323 18.6445 13.894 18.4336L12.7338 18.082C12.4877 18.2578 12.2065 18.4336 11.8901 18.5742L11.6088 19.7344C11.433 20.4727 10.7651 21 9.99164 21H7.35492C6.58148 21 5.91352 20.4727 5.73773 19.7344L5.45648 18.5742C5.14008 18.4336 4.85883 18.2578 4.61273 18.082L3.45258 18.4336C2.7143 18.6445 1.9057 18.3281 1.51898 17.6602L0.218203 15.375C-0.168515 14.707 -0.0278903 13.8633 0.53461 13.3359L1.37836 12.4922C1.37836 12.3516 1.37836 12.1758 1.37836 12C1.37836 11.8594 1.37836 11.6836 1.37836 11.5078L0.53461 10.6992C-0.0278903 10.1719 -0.168515 9.32812 0.218203 8.66016L1.51898 6.375C1.9057 5.70703 2.7143 5.39062 3.45258 5.60156L4.61273 5.95312C4.85883 5.77734 5.14008 5.60156 5.45648 5.46094L5.73773 4.30078C5.91352 3.5625 6.58148 3 7.35492 3H9.99164ZM6.89789 6.65625L6.51117 6.83203C6.05414 7.00781 5.63227 7.25391 5.2807 7.53516L4.92914 7.81641L2.99555 7.21875L1.69477 9.50391L3.13617 10.875L3.10102 11.2969C3.06586 11.543 3.06586 11.7891 3.06586 12C3.06586 12.2461 3.06586 12.4922 3.10102 12.7383L3.13617 13.1602L1.69477 14.5312L2.99555 16.8164L4.92914 16.2188L5.2807 16.5C5.63227 16.7812 6.05414 17.0273 6.51117 17.2031L6.89789 17.3789L7.35492 19.3125H9.99164L10.4487 17.3789L10.8354 17.2031C11.2924 17.0273 11.7143 16.7812 12.0659 16.5L12.4174 16.2188L14.351 16.8164L15.6518 14.5312L14.2104 13.1602L14.2455 12.7383C14.2807 12.4922 14.3159 12.2461 14.3159 12C14.3159 11.7891 14.2807 11.543 14.2455 11.2969L14.2104 10.875L15.6518 9.50391L14.351 7.21875L12.4174 7.81641L12.0659 7.53516C11.7143 7.25391 11.2924 7.00781 10.8354 6.83203L10.4487 6.65625L9.99164 4.6875H7.35492L6.89789 6.65625Z" fill="#414651"/>
<path d="M39.4716 9.5625C39.4186 9.06629 39.1951 8.67992 38.8011 8.40341C38.411 8.12689 37.9034 7.98864 37.2784 7.98864C36.839 7.98864 36.4621 8.05492 36.1477 8.1875C35.8333 8.32008 35.5928 8.5 35.4261 8.72727C35.2595 8.95455 35.1742 9.21402 35.1705 9.50568C35.1705 9.74811 35.2254 9.95833 35.3352 10.1364C35.4489 10.3144 35.6023 10.4659 35.7955 10.5909C35.9886 10.7121 36.2027 10.8144 36.4375 10.8977C36.6723 10.9811 36.9091 11.0511 37.1477 11.108L38.2386 11.3807C38.678 11.483 39.1004 11.6212 39.5057 11.7955C39.9148 11.9697 40.2803 12.1894 40.6023 12.4545C40.928 12.7197 41.1856 13.0398 41.375 13.4148C41.5644 13.7898 41.6591 14.2292 41.6591 14.733C41.6591 15.4148 41.4848 16.0152 41.1364 16.5341C40.7879 17.0492 40.2841 17.4527 39.625 17.7443C38.9697 18.0322 38.1761 18.1761 37.2443 18.1761C36.339 18.1761 35.553 18.036 34.8864 17.7557C34.2235 17.4754 33.7045 17.0663 33.3295 16.5284C32.9583 15.9905 32.7576 15.3352 32.7273 14.5625H34.8011C34.8314 14.9678 34.9564 15.3049 35.1761 15.5739C35.3958 15.8428 35.6818 16.0436 36.0341 16.1761C36.3902 16.3087 36.7879 16.375 37.2273 16.375C37.6856 16.375 38.0871 16.3068 38.4318 16.1705C38.7803 16.0303 39.053 15.8371 39.25 15.5909C39.447 15.3409 39.5473 15.0492 39.5511 14.7159C39.5473 14.4129 39.4583 14.1629 39.2841 13.9659C39.1098 13.7652 38.8655 13.5985 38.5511 13.4659C38.2405 13.3295 37.8769 13.2083 37.4602 13.1023L36.1364 12.7614C35.178 12.5152 34.4205 12.142 33.8636 11.642C33.3106 11.1383 33.0341 10.4697 33.0341 9.63636C33.0341 8.95076 33.2197 8.35038 33.5909 7.83523C33.9659 7.32008 34.4754 6.92045 35.1193 6.63636C35.7633 6.34848 36.4924 6.20455 37.3068 6.20455C38.1326 6.20455 38.8561 6.34848 39.4773 6.63636C40.1023 6.92045 40.5928 7.31629 40.9489 7.82386C41.3049 8.32765 41.4886 8.9072 41.5 9.5625H39.4716ZM47.3111 18.1705C46.4361 18.1705 45.6804 17.9886 45.044 17.625C44.4115 17.2576 43.9247 16.7386 43.5838 16.0682C43.2429 15.3939 43.0724 14.6004 43.0724 13.6875C43.0724 12.7898 43.2429 12.0019 43.5838 11.3239C43.9285 10.642 44.4096 10.1117 45.027 9.73295C45.6444 9.35038 46.3698 9.15909 47.2031 9.15909C47.741 9.15909 48.2486 9.24621 48.7259 9.42045C49.2069 9.59091 49.6312 9.85606 49.9986 10.2159C50.3698 10.5758 50.6615 11.0341 50.8736 11.5909C51.0857 12.1439 51.1918 12.803 51.1918 13.5682V14.1989H44.0384V12.8125H49.2202C49.2164 12.4186 49.1312 12.0682 48.9645 11.7614C48.7978 11.4508 48.5649 11.2064 48.2656 11.0284C47.9702 10.8504 47.6255 10.7614 47.2315 10.7614C46.8111 10.7614 46.4418 10.8636 46.1236 11.0682C45.8054 11.2689 45.5573 11.5341 45.3793 11.8636C45.205 12.1894 45.116 12.5473 45.1122 12.9375V14.1477C45.1122 14.6553 45.205 15.0909 45.3906 15.4545C45.5762 15.8144 45.8357 16.0909 46.169 16.2841C46.5024 16.4735 46.8925 16.5682 47.3395 16.5682C47.6387 16.5682 47.9096 16.5265 48.152 16.4432C48.3944 16.3561 48.6046 16.2292 48.7827 16.0625C48.9607 15.8958 49.0952 15.6894 49.1861 15.4432L51.1065 15.6591C50.9853 16.1667 50.7543 16.6098 50.4134 16.9886C50.0762 17.3636 49.6444 17.6553 49.1179 17.8636C48.5914 18.0682 47.9891 18.1705 47.3111 18.1705ZM57.2898 9.27273V10.8636H52.2727V9.27273H57.2898ZM53.5114 7.18182H55.5682V15.375C55.5682 15.6515 55.6098 15.8636 55.6932 16.0114C55.7803 16.1553 55.8939 16.2538 56.0341 16.3068C56.1742 16.3598 56.3295 16.3864 56.5 16.3864C56.6288 16.3864 56.7462 16.3769 56.8523 16.358C56.9621 16.339 57.0455 16.322 57.1023 16.3068L57.4489 17.9148C57.339 17.9527 57.1818 17.9943 56.9773 18.0398C56.7765 18.0852 56.5303 18.1117 56.2386 18.1193C55.7235 18.1345 55.2595 18.0568 54.8466 17.8864C54.4337 17.7121 54.1061 17.4432 53.8636 17.0795C53.625 16.7159 53.5076 16.2614 53.5114 15.7159V7.18182ZM63.3679 9.27273V10.8636H58.3509V9.27273H63.3679ZM59.5895 7.18182H61.6463V15.375C61.6463 15.6515 61.688 15.8636 61.7713 16.0114C61.8584 16.1553 61.9721 16.2538 62.1122 16.3068C62.2524 16.3598 62.4077 16.3864 62.5781 16.3864C62.7069 16.3864 62.8243 16.3769 62.9304 16.358C63.0402 16.339 63.1236 16.322 63.1804 16.3068L63.527 17.9148C63.4171 17.9527 63.2599 17.9943 63.0554 18.0398C62.8546 18.0852 62.6084 18.1117 62.3168 18.1193C61.8016 18.1345 61.3376 18.0568 60.9247 17.8864C60.5118 17.7121 60.1842 17.4432 59.9418 17.0795C59.7031 16.7159 59.5857 16.2614 59.5895 15.7159V7.18182ZM65.0881 18V9.27273H67.1449V18H65.0881ZM66.1222 8.03409C65.7964 8.03409 65.5161 7.92614 65.2812 7.71023C65.0464 7.49053 64.929 7.22727 64.929 6.92045C64.929 6.60985 65.0464 6.34659 65.2812 6.13068C65.5161 5.91098 65.7964 5.80114 66.1222 5.80114C66.4517 5.80114 66.732 5.91098 66.9631 6.13068C67.1979 6.34659 67.3153 6.60985 67.3153 6.92045C67.3153 7.22727 67.1979 7.49053 66.9631 7.71023C66.732 7.92614 66.4517 8.03409 66.1222 8.03409ZM71.3168 12.8864V18H69.2599V9.27273H71.2259V10.7557H71.3281C71.5289 10.267 71.849 9.87879 72.2884 9.59091C72.7315 9.30303 73.2789 9.15909 73.9304 9.15909C74.5327 9.15909 75.0573 9.28788 75.5043 9.54545C75.955 9.80303 76.3035 10.1761 76.5497 10.6648C76.7997 11.1534 76.9228 11.7462 76.919 12.4432V18H74.8622V12.7614C74.8622 12.178 74.7107 11.7216 74.4077 11.392C74.1084 11.0625 73.6937 10.8977 73.1634 10.8977C72.8035 10.8977 72.4834 10.9773 72.2031 11.1364C71.9266 11.2917 71.7088 11.517 71.5497 11.8125C71.3944 12.108 71.3168 12.4659 71.3168 12.8864ZM82.8054 21.4545C82.0668 21.4545 81.4323 21.3542 80.902 21.1534C80.3717 20.9564 79.9455 20.6913 79.6236 20.358C79.3016 20.0246 79.0781 19.6553 78.9531 19.25L80.8054 18.8011C80.8887 18.9716 81.0099 19.1402 81.169 19.3068C81.3281 19.4773 81.5421 19.6174 81.8111 19.7273C82.0838 19.8409 82.4266 19.8977 82.8395 19.8977C83.4228 19.8977 83.9058 19.7557 84.2884 19.4716C84.6709 19.1913 84.8622 18.7292 84.8622 18.0852V16.4318H84.7599C84.6539 16.6439 84.4986 16.8617 84.294 17.0852C84.0933 17.3087 83.8262 17.4962 83.4929 17.6477C83.1634 17.7992 82.7486 17.875 82.2486 17.875C81.5781 17.875 80.9702 17.7178 80.4247 17.4034C79.883 17.0852 79.4512 16.6117 79.1293 15.983C78.8111 15.3504 78.652 14.5587 78.652 13.608C78.652 12.6496 78.8111 11.8409 79.1293 11.1818C79.4512 10.5189 79.8849 10.017 80.4304 9.67614C80.9759 9.33144 81.5838 9.15909 82.2543 9.15909C82.7656 9.15909 83.1861 9.24621 83.5156 9.42045C83.849 9.59091 84.1141 9.79735 84.3111 10.0398C84.508 10.2784 84.6577 10.5038 84.7599 10.7159H84.8736V9.27273H86.902V18.142C86.902 18.8883 86.724 19.5057 86.3679 19.9943C86.0118 20.483 85.5251 20.8485 84.9077 21.0909C84.2902 21.3333 83.5895 21.4545 82.8054 21.4545ZM82.8224 16.2614C83.258 16.2614 83.6293 16.1553 83.9361 15.9432C84.2429 15.7311 84.4759 15.4261 84.6349 15.0284C84.794 14.6307 84.8736 14.1534 84.8736 13.5966C84.8736 13.0473 84.794 12.5663 84.6349 12.1534C84.4796 11.7405 84.2486 11.4205 83.9418 11.1932C83.6387 10.9621 83.2656 10.8466 82.8224 10.8466C82.3641 10.8466 81.9815 10.9659 81.6747 11.2045C81.3679 11.4432 81.1368 11.7708 80.9815 12.1875C80.8262 12.6004 80.7486 13.0701 80.7486 13.5966C80.7486 14.1307 80.8262 14.5985 80.9815 15C81.1406 15.3977 81.3736 15.7083 81.6804 15.9318C81.991 16.1515 82.3717 16.2614 82.8224 16.2614ZM95.9077 11.5795L94.0327 11.7841C93.9796 11.5947 93.8868 11.4167 93.7543 11.25C93.6255 11.0833 93.4512 10.9489 93.2315 10.8466C93.0118 10.7443 92.7429 10.6932 92.4247 10.6932C91.9967 10.6932 91.6368 10.786 91.3452 10.9716C91.0573 11.1572 90.9152 11.3977 90.919 11.6932C90.9152 11.947 91.008 12.1534 91.1974 12.3125C91.3906 12.4716 91.7088 12.6023 92.152 12.7045L93.6406 13.0227C94.4664 13.2008 95.08 13.483 95.4815 13.8693C95.8868 14.2557 96.0914 14.7614 96.0952 15.3864C96.0914 15.9356 95.9304 16.4205 95.6122 16.8409C95.2978 17.2576 94.8603 17.5833 94.2997 17.8182C93.7391 18.053 93.0952 18.1705 92.3679 18.1705C91.2997 18.1705 90.4399 17.947 89.7884 17.5C89.1368 17.0492 88.7486 16.4223 88.6236 15.6193L90.6293 15.4261C90.7202 15.8201 90.9134 16.1174 91.2088 16.3182C91.5043 16.5189 91.8887 16.6193 92.3622 16.6193C92.8509 16.6193 93.2429 16.5189 93.5384 16.3182C93.8376 16.1174 93.9872 15.8693 93.9872 15.5739C93.9872 15.3239 93.8906 15.1174 93.6974 14.9545C93.508 14.7917 93.2126 14.6667 92.8111 14.5795L91.3224 14.267C90.4853 14.0928 89.866 13.7992 89.4645 13.3864C89.063 12.9697 88.8641 12.4432 88.8679 11.8068C88.8641 11.2689 89.0099 10.803 89.3054 10.4091C89.6046 10.0114 90.0194 9.70455 90.5497 9.48864C91.0838 9.26894 91.6993 9.15909 92.3963 9.15909C93.419 9.15909 94.224 9.37689 94.8111 9.8125C95.402 10.2481 95.7675 10.8371 95.9077 11.5795Z" fill="#414651"/>
</svg>
