<svg width="186" height="24" viewBox="0 0 186 24" fill="none" xmlns="http://www.w3.org/2000/svg">
<path d="M14.5547 4.09441L9.49219 20.4069C9.35156 20.8288 8.89453 21.0749 8.4375 20.9343C8.01562 20.7936 7.76953 20.3366 7.91016 19.8796L12.9727 3.56707C13.1133 3.14519 13.5703 2.8991 14.0273 3.03973C14.4492 3.18035 14.6953 3.63738 14.5547 4.09441ZM17.7188 7.15301L22.2188 11.3718C22.3945 11.5124 22.5 11.7585 22.5 11.9694C22.5 12.2155 22.3945 12.4264 22.2188 12.6022L17.7188 16.821C17.3672 17.1374 16.8398 17.1374 16.5234 16.7858C16.207 16.4343 16.207 15.9069 16.5586 15.5905L20.3906 11.9694L16.5586 8.38347C16.207 8.06707 16.207 7.53972 16.5234 7.18816C16.8398 6.8366 17.3672 6.8366 17.7188 7.15301ZM5.90625 8.38347L2.07422 11.9694L5.90625 15.5905C6.25781 15.9069 6.25781 16.4343 5.94141 16.7858C5.625 17.1374 5.09766 17.1374 4.74609 16.821L0.246094 12.6022C0.0703125 12.4264 0 12.2155 0 11.9694C0 11.7585 0.0703125 11.5124 0.246094 11.3718L4.74609 7.15301C5.09766 6.8366 5.625 6.8366 5.94141 7.18816C6.25781 7.53972 6.25781 8.06707 5.90625 8.38347Z" fill="#414651"/>
<path d="M34.642 18H32.392L36.4886 6.36364H39.0909L43.1932 18H40.9432L37.8352 8.75H37.7443L34.642 18ZM34.7159 13.4375H40.8523V15.1307H34.7159V13.4375ZM46.8338 6.36364V18H44.7259V6.36364H46.8338ZM63.0455 10.2898H60.9205C60.8598 9.94129 60.7481 9.63258 60.5852 9.36364C60.4223 9.09091 60.2197 8.85985 59.9773 8.67045C59.7348 8.48106 59.4583 8.33901 59.1477 8.24432C58.8409 8.14583 58.5095 8.09659 58.1534 8.09659C57.5208 8.09659 56.9602 8.25568 56.4716 8.57386C55.983 8.88826 55.6004 9.35038 55.3239 9.96023C55.0473 10.5663 54.9091 11.3068 54.9091 12.1818C54.9091 13.072 55.0473 13.822 55.3239 14.4318C55.6042 15.0379 55.9867 15.4962 56.4716 15.8068C56.9602 16.1136 57.5189 16.267 58.1477 16.267C58.4962 16.267 58.822 16.2216 59.125 16.1307C59.4318 16.036 59.7064 15.8977 59.9489 15.7159C60.1951 15.5341 60.4015 15.3106 60.5682 15.0455C60.7386 14.7803 60.8561 14.4773 60.9205 14.1364L63.0455 14.1477C62.9659 14.7008 62.7936 15.2197 62.5284 15.7045C62.267 16.1894 61.9242 16.6174 61.5 16.9886C61.0758 17.3561 60.5795 17.6439 60.0114 17.8523C59.4432 18.0568 58.8125 18.1591 58.1193 18.1591C57.0966 18.1591 56.1837 17.9223 55.3807 17.4489C54.5777 16.9754 53.9451 16.2917 53.483 15.3977C53.0208 14.5038 52.7898 13.4318 52.7898 12.1818C52.7898 10.928 53.0227 9.85606 53.4886 8.96591C53.9545 8.07197 54.589 7.38826 55.392 6.91477C56.1951 6.44129 57.1042 6.20455 58.1193 6.20455C58.767 6.20455 59.3693 6.29545 59.9261 6.47727C60.483 6.65909 60.9792 6.92614 61.4148 7.27841C61.8504 7.62689 62.2083 8.05492 62.4886 8.5625C62.7727 9.06629 62.9583 9.64205 63.0455 10.2898ZM68.6918 18.1705C67.8395 18.1705 67.1009 17.983 66.4759 17.608C65.8509 17.233 65.366 16.7083 65.0213 16.0341C64.6804 15.3598 64.5099 14.572 64.5099 13.6705C64.5099 12.7689 64.6804 11.9792 65.0213 11.3011C65.366 10.6231 65.8509 10.0966 66.4759 9.72159C67.1009 9.34659 67.8395 9.15909 68.6918 9.15909C69.544 9.15909 70.2827 9.34659 70.9077 9.72159C71.5327 10.0966 72.0156 10.6231 72.3565 11.3011C72.7012 11.9792 72.8736 12.7689 72.8736 13.6705C72.8736 14.572 72.7012 15.3598 72.3565 16.0341C72.0156 16.7083 71.5327 17.233 70.9077 17.608C70.2827 17.983 69.544 18.1705 68.6918 18.1705ZM68.7031 16.5227C69.1652 16.5227 69.5516 16.3958 69.8622 16.142C70.1728 15.8845 70.4039 15.5398 70.5554 15.108C70.7107 14.6761 70.7884 14.1951 70.7884 13.6648C70.7884 13.1307 70.7107 12.6477 70.5554 12.2159C70.4039 11.7803 70.1728 11.4337 69.8622 11.1761C69.5516 10.9186 69.1652 10.7898 68.7031 10.7898C68.2296 10.7898 67.8357 10.9186 67.5213 11.1761C67.2107 11.4337 66.9777 11.7803 66.8224 12.2159C66.6709 12.6477 66.5952 13.1307 66.5952 13.6648C66.5952 14.1951 66.6709 14.6761 66.8224 15.108C66.9777 15.5398 67.2107 15.8845 67.5213 16.142C67.8357 16.3958 68.2296 16.5227 68.7031 16.5227ZM77.858 18.1534C77.1723 18.1534 76.5587 17.9773 76.017 17.625C75.4754 17.2727 75.0473 16.7614 74.733 16.0909C74.4186 15.4205 74.2614 14.6061 74.2614 13.6477C74.2614 12.678 74.4205 11.8598 74.7386 11.1932C75.0606 10.5227 75.4943 10.017 76.0398 9.67614C76.5852 9.33144 77.1932 9.15909 77.8636 9.15909C78.375 9.15909 78.7955 9.24621 79.125 9.42045C79.4545 9.59091 79.7159 9.79735 79.9091 10.0398C80.1023 10.2784 80.2519 10.5038 80.358 10.7159H80.4432V6.36364H82.5057V18H80.483V16.625H80.358C80.2519 16.8371 80.0985 17.0625 79.8977 17.3011C79.697 17.536 79.4318 17.7367 79.1023 17.9034C78.7727 18.0701 78.358 18.1534 77.858 18.1534ZM78.4318 16.4659C78.8674 16.4659 79.2386 16.3485 79.5455 16.1136C79.8523 15.875 80.0852 15.5436 80.2443 15.1193C80.4034 14.6951 80.483 14.2008 80.483 13.6364C80.483 13.072 80.4034 12.5814 80.2443 12.1648C80.089 11.7481 79.858 11.4242 79.5511 11.1932C79.2481 10.9621 78.875 10.8466 78.4318 10.8466C77.9735 10.8466 77.5909 10.9659 77.2841 11.2045C76.9773 11.4432 76.7462 11.7727 76.5909 12.1932C76.4356 12.6136 76.358 13.0947 76.358 13.6364C76.358 14.1818 76.4356 14.6686 76.5909 15.0966C76.75 15.5208 76.983 15.8561 77.2898 16.1023C77.6004 16.3447 77.9811 16.4659 78.4318 16.4659ZM88.5611 18.1705C87.6861 18.1705 86.9304 17.9886 86.294 17.625C85.6615 17.2576 85.1747 16.7386 84.8338 16.0682C84.4929 15.3939 84.3224 14.6004 84.3224 13.6875C84.3224 12.7898 84.4929 12.0019 84.8338 11.3239C85.1785 10.642 85.6596 10.1117 86.277 9.73295C86.8944 9.35038 87.6198 9.15909 88.4531 9.15909C88.991 9.15909 89.4986 9.24621 89.9759 9.42045C90.4569 9.59091 90.8812 9.85606 91.2486 10.2159C91.6198 10.5758 91.9115 11.0341 92.1236 11.5909C92.3357 12.1439 92.4418 12.803 92.4418 13.5682V14.1989H85.2884V12.8125H90.4702C90.4664 12.4186 90.3812 12.0682 90.2145 11.7614C90.0478 11.4508 89.8149 11.2064 89.5156 11.0284C89.2202 10.8504 88.8755 10.7614 88.4815 10.7614C88.0611 10.7614 87.6918 10.8636 87.3736 11.0682C87.0554 11.2689 86.8073 11.5341 86.6293 11.8636C86.455 12.1894 86.366 12.5473 86.3622 12.9375V14.1477C86.3622 14.6553 86.455 15.0909 86.6406 15.4545C86.8262 15.8144 87.0857 16.0909 87.419 16.2841C87.7524 16.4735 88.1425 16.5682 88.5895 16.5682C88.8887 16.5682 89.1596 16.5265 89.402 16.4432C89.6444 16.3561 89.8546 16.2292 90.0327 16.0625C90.2107 15.8958 90.3452 15.6894 90.4361 15.4432L92.3565 15.6591C92.2353 16.1667 92.0043 16.6098 91.6634 16.9886C91.3262 17.3636 90.8944 17.6553 90.3679 17.8636C89.8414 18.0682 89.2391 18.1705 88.5611 18.1705ZM98.2415 18V6.36364H102.605C103.499 6.36364 104.249 6.51894 104.855 6.82955C105.465 7.14015 105.925 7.57576 106.236 8.13636C106.55 8.69318 106.707 9.3428 106.707 10.0852C106.707 10.8314 106.548 11.4792 106.23 12.0284C105.916 12.5739 105.452 12.9962 104.838 13.2955C104.224 13.5909 103.471 13.7386 102.577 13.7386H99.4688V11.9886H102.293C102.815 11.9886 103.243 11.9167 103.577 11.7727C103.91 11.625 104.156 11.411 104.315 11.1307C104.478 10.8466 104.56 10.4981 104.56 10.0852C104.56 9.67235 104.478 9.32008 104.315 9.02841C104.152 8.73295 103.904 8.50947 103.571 8.35795C103.238 8.20265 102.808 8.125 102.281 8.125H100.349V18H98.2415ZM104.253 12.7273L107.134 18H104.781L101.952 12.7273H104.253ZM112.295 18.1705C111.42 18.1705 110.665 17.9886 110.028 17.625C109.396 17.2576 108.909 16.7386 108.568 16.0682C108.227 15.3939 108.057 14.6004 108.057 13.6875C108.057 12.7898 108.227 12.0019 108.568 11.3239C108.913 10.642 109.394 10.1117 110.011 9.73295C110.629 9.35038 111.354 9.15909 112.188 9.15909C112.725 9.15909 113.233 9.24621 113.71 9.42045C114.191 9.59091 114.616 9.85606 114.983 10.2159C115.354 10.5758 115.646 11.0341 115.858 11.5909C116.07 12.1439 116.176 12.803 116.176 13.5682V14.1989H109.023V12.8125H114.205C114.201 12.4186 114.116 12.0682 113.949 11.7614C113.782 11.4508 113.549 11.2064 113.25 11.0284C112.955 10.8504 112.61 10.7614 112.216 10.7614C111.795 10.7614 111.426 10.8636 111.108 11.0682C110.79 11.2689 110.542 11.5341 110.364 11.8636C110.189 12.1894 110.1 12.5473 110.097 12.9375V14.1477C110.097 14.6553 110.189 15.0909 110.375 15.4545C110.561 15.8144 110.82 16.0909 111.153 16.2841C111.487 16.4735 111.877 16.5682 112.324 16.5682C112.623 16.5682 112.894 16.5265 113.136 16.4432C113.379 16.3561 113.589 16.2292 113.767 16.0625C113.945 15.8958 114.08 15.6894 114.17 15.4432L116.091 15.6591C115.97 16.1667 115.739 16.6098 115.398 16.9886C115.061 17.3636 114.629 17.6553 114.102 17.8636C113.576 18.0682 112.973 18.1705 112.295 18.1705ZM125.462 9.27273L122.354 18H120.081L116.973 9.27273H119.166L121.172 15.7557H121.263L123.274 9.27273H125.462ZM126.885 18V9.27273H128.942V18H126.885ZM127.919 8.03409C127.593 8.03409 127.313 7.92614 127.078 7.71023C126.843 7.49053 126.726 7.22727 126.726 6.92045C126.726 6.60985 126.843 6.34659 127.078 6.13068C127.313 5.91098 127.593 5.80114 127.919 5.80114C128.249 5.80114 128.529 5.91098 128.76 6.13068C128.995 6.34659 129.112 6.60985 129.112 6.92045C129.112 7.22727 128.995 7.49053 128.76 7.71023C128.529 7.92614 128.249 8.03409 127.919 8.03409ZM134.92 18.1705C134.045 18.1705 133.29 17.9886 132.653 17.625C132.021 17.2576 131.534 16.7386 131.193 16.0682C130.852 15.3939 130.682 14.6004 130.682 13.6875C130.682 12.7898 130.852 12.0019 131.193 11.3239C131.538 10.642 132.019 10.1117 132.636 9.73295C133.254 9.35038 133.979 9.15909 134.812 9.15909C135.35 9.15909 135.858 9.24621 136.335 9.42045C136.816 9.59091 137.241 9.85606 137.608 10.2159C137.979 10.5758 138.271 11.0341 138.483 11.5909C138.695 12.1439 138.801 12.803 138.801 13.5682V14.1989H131.648V12.8125H136.83C136.826 12.4186 136.741 12.0682 136.574 11.7614C136.407 11.4508 136.174 11.2064 135.875 11.0284C135.58 10.8504 135.235 10.7614 134.841 10.7614C134.42 10.7614 134.051 10.8636 133.733 11.0682C133.415 11.2689 133.167 11.5341 132.989 11.8636C132.814 12.1894 132.725 12.5473 132.722 12.9375V14.1477C132.722 14.6553 132.814 15.0909 133 15.4545C133.186 15.8144 133.445 16.0909 133.778 16.2841C134.112 16.4735 134.502 16.5682 134.949 16.5682C135.248 16.5682 135.519 16.5265 135.761 16.4432C136.004 16.3561 136.214 16.2292 136.392 16.0625C136.57 15.8958 136.705 15.6894 136.795 15.4432L138.716 15.6591C138.595 16.1667 138.364 16.6098 138.023 16.9886C137.686 17.3636 137.254 17.6553 136.727 17.8636C136.201 18.0682 135.598 18.1705 134.92 18.1705ZM142.295 18L139.83 9.27273H141.926L143.46 15.4091H143.54L145.108 9.27273H147.182L148.75 15.375H148.835L150.347 9.27273H152.449L149.977 18H147.835L146.199 12.1023H146.08L144.443 18H142.295Z" fill="#414651"/>
</svg>
