<svg width="186" height="24" viewBox="0 0 186 24" fill="none" xmlns="http://www.w3.org/2000/svg">
<path d="M16.875 14.2756C17.6836 14.6272 18.1406 15.5061 17.8945 16.385L17.1562 19.5842C17.0156 20.428 16.2773 20.9905 15.3984 20.9905C6.89062 20.9905 0 14.0999 0 5.59205C0 4.71315 0.5625 3.97486 1.40625 3.79908L4.60547 3.0608C5.48438 2.84986 6.36328 3.3069 6.71484 4.11549L8.22656 7.63111C8.54297 8.3694 8.29688 9.2483 7.69922 9.77565L6.50391 10.7249C7.41797 12.2717 8.71875 13.5725 10.3008 14.4866L11.25 13.3264C11.7773 12.6936 12.6562 12.4475 13.4297 12.7991L16.875 14.2756ZM16.2773 15.9983C16.3125 15.928 16.2773 15.8577 16.207 15.7874L12.7617 14.3108C12.6914 14.2756 12.6211 14.3108 12.5859 14.346L11.1797 16.0686C10.9336 16.385 10.4766 16.4553 10.125 16.2796C7.76953 15.1194 5.83594 13.1858 4.67578 10.8303C4.5 10.4788 4.60547 10.0569 4.88672 9.8108L6.60938 8.40455C6.67969 8.3694 6.67969 8.29908 6.64453 8.22877L5.16797 4.78346C5.13281 4.7483 5.09766 4.67799 5.02734 4.67799L4.99219 4.71315L1.79297 5.45143C1.72266 5.45143 1.65234 5.52174 1.65234 5.59205C1.65234 13.1506 7.83984 19.303 15.3984 19.303C15.4688 19.303 15.5391 19.2327 15.5391 19.1975L16.2773 15.9983Z" fill="#414651"/>
<path d="M39.4716 9.5625C39.4186 9.06629 39.1951 8.67992 38.8011 8.40341C38.411 8.12689 37.9034 7.98864 37.2784 7.98864C36.839 7.98864 36.4621 8.05492 36.1477 8.1875C35.8333 8.32008 35.5928 8.5 35.4261 8.72727C35.2595 8.95455 35.1742 9.21402 35.1705 9.50568C35.1705 9.74811 35.2254 9.95833 35.3352 10.1364C35.4489 10.3144 35.6023 10.4659 35.7955 10.5909C35.9886 10.7121 36.2027 10.8144 36.4375 10.8977C36.6723 10.9811 36.9091 11.0511 37.1477 11.108L38.2386 11.3807C38.678 11.483 39.1004 11.6212 39.5057 11.7955C39.9148 11.9697 40.2803 12.1894 40.6023 12.4545C40.928 12.7197 41.1856 13.0398 41.375 13.4148C41.5644 13.7898 41.6591 14.2292 41.6591 14.733C41.6591 15.4148 41.4848 16.0152 41.1364 16.5341C40.7879 17.0492 40.2841 17.4527 39.625 17.7443C38.9697 18.0322 38.1761 18.1761 37.2443 18.1761C36.339 18.1761 35.553 18.036 34.8864 17.7557C34.2235 17.4754 33.7045 17.0663 33.3295 16.5284C32.9583 15.9905 32.7576 15.3352 32.7273 14.5625H34.8011C34.8314 14.9678 34.9564 15.3049 35.1761 15.5739C35.3958 15.8428 35.6818 16.0436 36.0341 16.1761C36.3902 16.3087 36.7879 16.375 37.2273 16.375C37.6856 16.375 38.0871 16.3068 38.4318 16.1705C38.7803 16.0303 39.053 15.8371 39.25 15.5909C39.447 15.3409 39.5473 15.0492 39.5511 14.7159C39.5473 14.4129 39.4583 14.1629 39.2841 13.9659C39.1098 13.7652 38.8655 13.5985 38.5511 13.4659C38.2405 13.3295 37.8769 13.2083 37.4602 13.1023L36.1364 12.7614C35.178 12.5152 34.4205 12.142 33.8636 11.642C33.3106 11.1383 33.0341 10.4697 33.0341 9.63636C33.0341 8.95076 33.2197 8.35038 33.5909 7.83523C33.9659 7.32008 34.4754 6.92045 35.1193 6.63636C35.7633 6.34848 36.4924 6.20455 37.3068 6.20455C38.1326 6.20455 38.8561 6.34848 39.4773 6.63636C40.1023 6.92045 40.5928 7.31629 40.9489 7.82386C41.3049 8.32765 41.4886 8.9072 41.5 9.5625H39.4716ZM49.0099 14.3295V9.27273H51.0668V18H49.0724V16.4489H48.9815C48.7846 16.9375 48.4607 17.3371 48.0099 17.6477C47.563 17.9583 47.0118 18.1136 46.3565 18.1136C45.7846 18.1136 45.2789 17.9867 44.8395 17.733C44.4039 17.4754 44.063 17.1023 43.8168 16.6136C43.5705 16.1212 43.4474 15.5265 43.4474 14.8295V9.27273H45.5043V14.5114C45.5043 15.0644 45.6558 15.5038 45.9588 15.8295C46.2618 16.1553 46.6596 16.3182 47.152 16.3182C47.455 16.3182 47.7486 16.2443 48.0327 16.0966C48.3168 15.9489 48.5497 15.7292 48.7315 15.4375C48.9171 15.142 49.0099 14.7727 49.0099 14.3295ZM53.1818 21.2727V9.27273H55.2045V10.7159H55.3239C55.4299 10.5038 55.5795 10.2784 55.7727 10.0398C55.9659 9.79735 56.2273 9.59091 56.5568 9.42045C56.8864 9.24621 57.3068 9.15909 57.8182 9.15909C58.4924 9.15909 59.1004 9.33144 59.642 9.67614C60.1875 10.017 60.6193 10.5227 60.9375 11.1932C61.2595 11.8598 61.4205 12.678 61.4205 13.6477C61.4205 14.6061 61.2633 15.4205 60.9489 16.0909C60.6345 16.7614 60.2064 17.2727 59.6648 17.625C59.1231 17.9773 58.5095 18.1534 57.8239 18.1534C57.3239 18.1534 56.9091 18.0701 56.5795 17.9034C56.25 17.7367 55.9848 17.536 55.7841 17.3011C55.5871 17.0625 55.4337 16.8371 55.3239 16.625H55.2386V21.2727H53.1818ZM55.1989 13.6364C55.1989 14.2008 55.2784 14.6951 55.4375 15.1193C55.6004 15.5436 55.8333 15.875 56.1364 16.1136C56.4432 16.3485 56.8144 16.4659 57.25 16.4659C57.7045 16.4659 58.0852 16.3447 58.392 16.1023C58.6989 15.8561 58.9299 15.5208 59.0852 15.0966C59.2443 14.6686 59.3239 14.1818 59.3239 13.6364C59.3239 13.0947 59.2462 12.6136 59.0909 12.1932C58.9356 11.7727 58.7045 11.4432 58.3977 11.2045C58.0909 10.9659 57.7083 10.8466 57.25 10.8466C56.8106 10.8466 56.4375 10.9621 56.1307 11.1932C55.8239 11.4242 55.5909 11.7481 55.4318 12.1648C55.2765 12.5814 55.1989 13.072 55.1989 13.6364ZM63.1818 21.2727V9.27273H65.2045V10.7159H65.3239C65.4299 10.5038 65.5795 10.2784 65.7727 10.0398C65.9659 9.79735 66.2273 9.59091 66.5568 9.42045C66.8864 9.24621 67.3068 9.15909 67.8182 9.15909C68.4924 9.15909 69.1004 9.33144 69.642 9.67614C70.1875 10.017 70.6193 10.5227 70.9375 11.1932C71.2595 11.8598 71.4205 12.678 71.4205 13.6477C71.4205 14.6061 71.2633 15.4205 70.9489 16.0909C70.6345 16.7614 70.2064 17.2727 69.6648 17.625C69.1231 17.9773 68.5095 18.1534 67.8239 18.1534C67.3239 18.1534 66.9091 18.0701 66.5795 17.9034C66.25 17.7367 65.9848 17.536 65.7841 17.3011C65.5871 17.0625 65.4337 16.8371 65.3239 16.625H65.2386V21.2727H63.1818ZM65.1989 13.6364C65.1989 14.2008 65.2784 14.6951 65.4375 15.1193C65.6004 15.5436 65.8333 15.875 66.1364 16.1136C66.4432 16.3485 66.8144 16.4659 67.25 16.4659C67.7045 16.4659 68.0852 16.3447 68.392 16.1023C68.6989 15.8561 68.9299 15.5208 69.0852 15.0966C69.2443 14.6686 69.3239 14.1818 69.3239 13.6364C69.3239 13.0947 69.2462 12.6136 69.0909 12.1932C68.9356 11.7727 68.7045 11.4432 68.3977 11.2045C68.0909 10.9659 67.7083 10.8466 67.25 10.8466C66.8106 10.8466 66.4375 10.9621 66.1307 11.1932C65.8239 11.4242 65.5909 11.7481 65.4318 12.1648C65.2765 12.5814 65.1989 13.072 65.1989 13.6364ZM76.9886 18.1705C76.1364 18.1705 75.3977 17.983 74.7727 17.608C74.1477 17.233 73.6629 16.7083 73.3182 16.0341C72.9773 15.3598 72.8068 14.572 72.8068 13.6705C72.8068 12.7689 72.9773 11.9792 73.3182 11.3011C73.6629 10.6231 74.1477 10.0966 74.7727 9.72159C75.3977 9.34659 76.1364 9.15909 76.9886 9.15909C77.8409 9.15909 78.5795 9.34659 79.2045 9.72159C79.8295 10.0966 80.3125 10.6231 80.6534 11.3011C80.9981 11.9792 81.1705 12.7689 81.1705 13.6705C81.1705 14.572 80.9981 15.3598 80.6534 16.0341C80.3125 16.7083 79.8295 17.233 79.2045 17.608C78.5795 17.983 77.8409 18.1705 76.9886 18.1705ZM77 16.5227C77.4621 16.5227 77.8485 16.3958 78.1591 16.142C78.4697 15.8845 78.7008 15.5398 78.8523 15.108C79.0076 14.6761 79.0852 14.1951 79.0852 13.6648C79.0852 13.1307 79.0076 12.6477 78.8523 12.2159C78.7008 11.7803 78.4697 11.4337 78.1591 11.1761C77.8485 10.9186 77.4621 10.7898 77 10.7898C76.5265 10.7898 76.1326 10.9186 75.8182 11.1761C75.5076 11.4337 75.2746 11.7803 75.1193 12.2159C74.9678 12.6477 74.892 13.1307 74.892 13.6648C74.892 14.1951 74.9678 14.6761 75.1193 15.108C75.2746 15.5398 75.5076 15.8845 75.8182 16.142C76.1326 16.3958 76.5265 16.5227 77 16.5227ZM82.9162 18V9.27273H84.9105V10.7273H85.0014C85.1605 10.2235 85.4332 9.83523 85.8196 9.5625C86.2098 9.28598 86.6548 9.14773 87.1548 9.14773C87.2685 9.14773 87.3954 9.15341 87.5355 9.16477C87.6795 9.17235 87.7988 9.18561 87.8935 9.20455V11.0966C87.8063 11.0663 87.6681 11.0398 87.4787 11.017C87.2931 10.9905 87.1132 10.9773 86.9389 10.9773C86.5639 10.9773 86.2268 11.0587 85.9276 11.2216C85.6321 11.3807 85.3991 11.6023 85.2287 11.8864C85.0582 12.1705 84.973 12.4981 84.973 12.8693V18H82.9162ZM94.0866 9.27273V10.8636H89.0696V9.27273H94.0866ZM90.3082 7.18182H92.3651V15.375C92.3651 15.6515 92.4067 15.8636 92.4901 16.0114C92.5772 16.1553 92.6908 16.2538 92.831 16.3068C92.9711 16.3598 93.1264 16.3864 93.2969 16.3864C93.4257 16.3864 93.5431 16.3769 93.6491 16.358C93.759 16.339 93.8423 16.322 93.8991 16.3068L94.2457 17.9148C94.1359 17.9527 93.9787 17.9943 93.7741 18.0398C93.5734 18.0852 93.3272 18.1117 93.0355 18.1193C92.5204 18.1345 92.0563 18.0568 91.6435 17.8864C91.2306 17.7121 90.9029 17.4432 90.6605 17.0795C90.4219 16.7159 90.3045 16.2614 90.3082 15.7159V7.18182Z" fill="#414651"/>
</svg>
