<svg width="182" height="24" viewBox="0 0 182 24" fill="none" xmlns="http://www.w3.org/2000/svg">
<path d="M19.9453 11.0728C20.2969 11.3892 20.332 11.9165 20.0508 12.2681C19.7344 12.6196 19.207 12.6548 18.8555 12.3735L18.0117 11.6353V18.1743C18.0117 19.7563 16.7461 20.9868 15.1992 20.9868H5.07422C3.49219 20.9868 2.26172 19.7563 2.26172 18.1743V11.6353L1.38281 12.3735C1.03125 12.6548 0.503906 12.6196 0.1875 12.2681C-0.09375 11.9165 -0.0585938 11.3892 0.292969 11.0728L9.57422 3.19775C9.89062 2.95166 10.3477 2.95166 10.6641 3.19775L19.9453 11.0728ZM5.07422 19.2993H6.76172V13.9556C6.76172 13.1821 7.35938 12.5493 8.16797 12.5493H12.1055C12.8789 12.5493 13.5117 13.1821 13.5117 13.9556V19.2993H15.1992C15.7969 19.2993 16.3242 18.8071 16.3242 18.1743V10.1938L10.1367 4.95557L3.94922 10.1938V18.1743C3.94922 18.8071 4.44141 19.2993 5.07422 19.2993ZM8.44922 19.2993H11.8242V14.2368H8.44922V19.2993Z" fill="white"/>
<path d="M33.1477 18V6.36364H37.5114C38.4053 6.36364 39.1553 6.51894 39.7614 6.82955C40.3712 7.14015 40.8314 7.57576 41.142 8.13636C41.4564 8.69318 41.6136 9.3428 41.6136 10.0852C41.6136 10.8314 41.4545 11.4792 41.1364 12.0284C40.822 12.5739 40.358 12.9962 39.7443 13.2955C39.1307 13.5909 38.3769 13.7386 37.483 13.7386H34.375V11.9886H37.1989C37.7216 11.9886 38.1496 11.9167 38.483 11.7727C38.8163 11.625 39.0625 11.411 39.2216 11.1307C39.3845 10.8466 39.4659 10.4981 39.4659 10.0852C39.4659 9.67235 39.3845 9.32008 39.2216 9.02841C39.0587 8.73295 38.8106 8.50947 38.4773 8.35795C38.1439 8.20265 37.714 8.125 37.1875 8.125H35.2557V18H33.1477ZM39.1591 12.7273L42.0398 18H39.6875L36.858 12.7273H39.1591ZM47.2017 18.1705C46.3267 18.1705 45.571 17.9886 44.9347 17.625C44.3021 17.2576 43.8153 16.7386 43.4744 16.0682C43.1335 15.3939 42.9631 14.6004 42.9631 13.6875C42.9631 12.7898 43.1335 12.0019 43.4744 11.3239C43.8191 10.642 44.3002 10.1117 44.9176 9.73295C45.535 9.35038 46.2604 9.15909 47.0938 9.15909C47.6316 9.15909 48.1392 9.24621 48.6165 9.42045C49.0975 9.59091 49.5218 9.85606 49.8892 10.2159C50.2604 10.5758 50.5521 11.0341 50.7642 11.5909C50.9763 12.1439 51.0824 12.803 51.0824 13.5682V14.1989H43.929V12.8125H49.1108C49.107 12.4186 49.0218 12.0682 48.8551 11.7614C48.6884 11.4508 48.4555 11.2064 48.1562 11.0284C47.8608 10.8504 47.5161 10.7614 47.1222 10.7614C46.7017 10.7614 46.3324 10.8636 46.0142 11.0682C45.696 11.2689 45.4479 11.5341 45.2699 11.8636C45.0956 12.1894 45.0066 12.5473 45.0028 12.9375V14.1477C45.0028 14.6553 45.0956 15.0909 45.2812 15.4545C45.4669 15.8144 45.7263 16.0909 46.0597 16.2841C46.393 16.4735 46.7831 16.5682 47.2301 16.5682C47.5294 16.5682 47.8002 16.5265 48.0426 16.4432C48.285 16.3561 48.4953 16.2292 48.6733 16.0625C48.8513 15.8958 48.9858 15.6894 49.0767 15.4432L50.9972 15.6591C50.8759 16.1667 50.6449 16.6098 50.304 16.9886C49.9669 17.3636 49.535 17.6553 49.0085 17.8636C48.482 18.0682 47.8797 18.1705 47.2017 18.1705ZM52.8224 21.2727V9.27273H54.8452V10.7159H54.9645C55.0705 10.5038 55.2202 10.2784 55.4134 10.0398C55.6065 9.79735 55.8679 9.59091 56.1974 9.42045C56.527 9.24621 56.9474 9.15909 57.4588 9.15909C58.133 9.15909 58.741 9.33144 59.2827 9.67614C59.8281 10.017 60.2599 10.5227 60.5781 11.1932C60.9001 11.8598 61.0611 12.678 61.0611 13.6477C61.0611 14.6061 60.9039 15.4205 60.5895 16.0909C60.2751 16.7614 59.8471 17.2727 59.3054 17.625C58.7637 17.9773 58.1501 18.1534 57.4645 18.1534C56.9645 18.1534 56.5497 18.0701 56.2202 17.9034C55.8906 17.7367 55.6255 17.536 55.4247 17.3011C55.2277 17.0625 55.0743 16.8371 54.9645 16.625H54.8793V21.2727H52.8224ZM54.8395 13.6364C54.8395 14.2008 54.919 14.6951 55.0781 15.1193C55.241 15.5436 55.474 15.875 55.777 16.1136C56.0838 16.3485 56.455 16.4659 56.8906 16.4659C57.3452 16.4659 57.7259 16.3447 58.0327 16.1023C58.3395 15.8561 58.5705 15.5208 58.7259 15.0966C58.8849 14.6686 58.9645 14.1818 58.9645 13.6364C58.9645 13.0947 58.8868 12.6136 58.7315 12.1932C58.5762 11.7727 58.3452 11.4432 58.0384 11.2045C57.7315 10.9659 57.349 10.8466 56.8906 10.8466C56.4512 10.8466 56.0781 10.9621 55.7713 11.1932C55.4645 11.4242 55.2315 11.7481 55.0724 12.1648C54.9171 12.5814 54.8395 13.072 54.8395 13.6364ZM66.6293 18.1705C65.777 18.1705 65.0384 17.983 64.4134 17.608C63.7884 17.233 63.3035 16.7083 62.9588 16.0341C62.6179 15.3598 62.4474 14.572 62.4474 13.6705C62.4474 12.7689 62.6179 11.9792 62.9588 11.3011C63.3035 10.6231 63.7884 10.0966 64.4134 9.72159C65.0384 9.34659 65.777 9.15909 66.6293 9.15909C67.4815 9.15909 68.2202 9.34659 68.8452 9.72159C69.4702 10.0966 69.9531 10.6231 70.294 11.3011C70.6387 11.9792 70.8111 12.7689 70.8111 13.6705C70.8111 14.572 70.6387 15.3598 70.294 16.0341C69.9531 16.7083 69.4702 17.233 68.8452 17.608C68.2202 17.983 67.4815 18.1705 66.6293 18.1705ZM66.6406 16.5227C67.1027 16.5227 67.4891 16.3958 67.7997 16.142C68.1103 15.8845 68.3414 15.5398 68.4929 15.108C68.6482 14.6761 68.7259 14.1951 68.7259 13.6648C68.7259 13.1307 68.6482 12.6477 68.4929 12.2159C68.3414 11.7803 68.1103 11.4337 67.7997 11.1761C67.4891 10.9186 67.1027 10.7898 66.6406 10.7898C66.1671 10.7898 65.7732 10.9186 65.4588 11.1761C65.1482 11.4337 64.9152 11.7803 64.7599 12.2159C64.6084 12.6477 64.5327 13.1307 64.5327 13.6648C64.5327 14.1951 64.6084 14.6761 64.7599 15.108C64.9152 15.5398 65.1482 15.8845 65.4588 16.142C65.7732 16.3958 66.1671 16.5227 66.6406 16.5227ZM79.4545 11.5795L77.5795 11.7841C77.5265 11.5947 77.4337 11.4167 77.3011 11.25C77.1723 11.0833 76.9981 10.9489 76.7784 10.8466C76.5587 10.7443 76.2898 10.6932 75.9716 10.6932C75.5436 10.6932 75.1837 10.786 74.892 10.9716C74.6042 11.1572 74.4621 11.3977 74.4659 11.6932C74.4621 11.947 74.5549 12.1534 74.7443 12.3125C74.9375 12.4716 75.2557 12.6023 75.6989 12.7045L77.1875 13.0227C78.0133 13.2008 78.6269 13.483 79.0284 13.8693C79.4337 14.2557 79.6383 14.7614 79.642 15.3864C79.6383 15.9356 79.4773 16.4205 79.1591 16.8409C78.8447 17.2576 78.4072 17.5833 77.8466 17.8182C77.286 18.053 76.642 18.1705 75.9148 18.1705C74.8466 18.1705 73.9867 17.947 73.3352 17.5C72.6837 17.0492 72.2955 16.4223 72.1705 15.6193L74.1761 15.4261C74.267 15.8201 74.4602 16.1174 74.7557 16.3182C75.0511 16.5189 75.4356 16.6193 75.9091 16.6193C76.3977 16.6193 76.7898 16.5189 77.0852 16.3182C77.3845 16.1174 77.5341 15.8693 77.5341 15.5739C77.5341 15.3239 77.4375 15.1174 77.2443 14.9545C77.0549 14.7917 76.7595 14.6667 76.358 14.5795L74.8693 14.267C74.0322 14.0928 73.4129 13.7992 73.0114 13.3864C72.6098 12.9697 72.411 12.4432 72.4148 11.8068C72.411 11.2689 72.5568 10.803 72.8523 10.4091C73.1515 10.0114 73.5663 9.70455 74.0966 9.48864C74.6307 9.26894 75.2462 9.15909 75.9432 9.15909C76.9659 9.15909 77.7708 9.37689 78.358 9.8125C78.9489 10.2481 79.3144 10.8371 79.4545 11.5795ZM81.3381 18V9.27273H83.3949V18H81.3381ZM82.3722 8.03409C82.0464 8.03409 81.7661 7.92614 81.5312 7.71023C81.2964 7.49053 81.179 7.22727 81.179 6.92045C81.179 6.60985 81.2964 6.34659 81.5312 6.13068C81.7661 5.91098 82.0464 5.80114 82.3722 5.80114C82.7017 5.80114 82.982 5.91098 83.2131 6.13068C83.4479 6.34659 83.5653 6.60985 83.5653 6.92045C83.5653 7.22727 83.4479 7.49053 83.2131 7.71023C82.982 7.92614 82.7017 8.03409 82.3722 8.03409ZM89.8679 9.27273V10.8636H84.8509V9.27273H89.8679ZM86.0895 7.18182H88.1463V15.375C88.1463 15.6515 88.188 15.8636 88.2713 16.0114C88.3584 16.1553 88.4721 16.2538 88.6122 16.3068C88.7524 16.3598 88.9077 16.3864 89.0781 16.3864C89.2069 16.3864 89.3243 16.3769 89.4304 16.358C89.5402 16.339 89.6236 16.322 89.6804 16.3068L90.027 17.9148C89.9171 17.9527 89.7599 17.9943 89.5554 18.0398C89.3546 18.0852 89.1084 18.1117 88.8168 18.1193C88.3016 18.1345 87.8376 18.0568 87.4247 17.8864C87.0118 17.7121 86.6842 17.4432 86.4418 17.0795C86.2031 16.7159 86.0857 16.2614 86.0895 15.7159V7.18182ZM95.3011 18.1705C94.4489 18.1705 93.7102 17.983 93.0852 17.608C92.4602 17.233 91.9754 16.7083 91.6307 16.0341C91.2898 15.3598 91.1193 14.572 91.1193 13.6705C91.1193 12.7689 91.2898 11.9792 91.6307 11.3011C91.9754 10.6231 92.4602 10.0966 93.0852 9.72159C93.7102 9.34659 94.4489 9.15909 95.3011 9.15909C96.1534 9.15909 96.892 9.34659 97.517 9.72159C98.142 10.0966 98.625 10.6231 98.9659 11.3011C99.3106 11.9792 99.483 12.7689 99.483 13.6705C99.483 14.572 99.3106 15.3598 98.9659 16.0341C98.625 16.7083 98.142 17.233 97.517 17.608C96.892 17.983 96.1534 18.1705 95.3011 18.1705ZM95.3125 16.5227C95.7746 16.5227 96.161 16.3958 96.4716 16.142C96.7822 15.8845 97.0133 15.5398 97.1648 15.108C97.3201 14.6761 97.3977 14.1951 97.3977 13.6648C97.3977 13.1307 97.3201 12.6477 97.1648 12.2159C97.0133 11.7803 96.7822 11.4337 96.4716 11.1761C96.161 10.9186 95.7746 10.7898 95.3125 10.7898C94.839 10.7898 94.4451 10.9186 94.1307 11.1761C93.8201 11.4337 93.5871 11.7803 93.4318 12.2159C93.2803 12.6477 93.2045 13.1307 93.2045 13.6648C93.2045 14.1951 93.2803 14.6761 93.4318 15.108C93.5871 15.5398 93.8201 15.8845 94.1307 16.142C94.4451 16.3958 94.839 16.5227 95.3125 16.5227ZM101.229 18V9.27273H103.223V10.7273H103.314C103.473 10.2235 103.746 9.83523 104.132 9.5625C104.522 9.28598 104.967 9.14773 105.467 9.14773C105.581 9.14773 105.708 9.15341 105.848 9.16477C105.992 9.17235 106.111 9.18561 106.206 9.20455V11.0966C106.119 11.0663 105.981 11.0398 105.791 11.017C105.606 10.9905 105.426 10.9773 105.251 10.9773C104.876 10.9773 104.539 11.0587 104.24 11.2216C103.945 11.3807 103.712 11.6023 103.541 11.8864C103.371 12.1705 103.286 12.4981 103.286 12.8693V18H101.229ZM107.572 18V9.27273H109.629V18H107.572ZM108.607 8.03409C108.281 8.03409 108 7.92614 107.766 7.71023C107.531 7.49053 107.413 7.22727 107.413 6.92045C107.413 6.60985 107.531 6.34659 107.766 6.13068C108 5.91098 108.281 5.80114 108.607 5.80114C108.936 5.80114 109.216 5.91098 109.447 6.13068C109.682 6.34659 109.8 6.60985 109.8 6.92045C109.8 7.22727 109.682 7.49053 109.447 7.71023C109.216 7.92614 108.936 8.03409 108.607 8.03409ZM115.608 18.1705C114.733 18.1705 113.977 17.9886 113.341 17.625C112.708 17.2576 112.222 16.7386 111.881 16.0682C111.54 15.3939 111.369 14.6004 111.369 13.6875C111.369 12.7898 111.54 12.0019 111.881 11.3239C112.225 10.642 112.706 10.1117 113.324 9.73295C113.941 9.35038 114.667 9.15909 115.5 9.15909C116.038 9.15909 116.545 9.24621 117.023 9.42045C117.504 9.59091 117.928 9.85606 118.295 10.2159C118.667 10.5758 118.958 11.0341 119.17 11.5909C119.383 12.1439 119.489 12.803 119.489 13.5682V14.1989H112.335V12.8125H117.517C117.513 12.4186 117.428 12.0682 117.261 11.7614C117.095 11.4508 116.862 11.2064 116.562 11.0284C116.267 10.8504 115.922 10.7614 115.528 10.7614C115.108 10.7614 114.739 10.8636 114.42 11.0682C114.102 11.2689 113.854 11.5341 113.676 11.8636C113.502 12.1894 113.413 12.5473 113.409 12.9375V14.1477C113.409 14.6553 113.502 15.0909 113.688 15.4545C113.873 15.8144 114.133 16.0909 114.466 16.2841C114.799 16.4735 115.189 16.5682 115.636 16.5682C115.936 16.5682 116.206 16.5265 116.449 16.4432C116.691 16.3561 116.902 16.2292 117.08 16.0625C117.258 15.8958 117.392 15.6894 117.483 15.4432L119.403 15.6591C119.282 16.1667 119.051 16.6098 118.71 16.9886C118.373 17.3636 117.941 17.6553 117.415 17.8636C116.888 18.0682 116.286 18.1705 115.608 18.1705ZM128.126 11.5795L126.251 11.7841C126.198 11.5947 126.106 11.4167 125.973 11.25C125.844 11.0833 125.67 10.9489 125.45 10.8466C125.231 10.7443 124.962 10.6932 124.643 10.6932C124.215 10.6932 123.856 10.786 123.564 10.9716C123.276 11.1572 123.134 11.3977 123.138 11.6932C123.134 11.947 123.227 12.1534 123.416 12.3125C123.609 12.4716 123.928 12.6023 124.371 12.7045L125.859 13.0227C126.685 13.2008 127.299 13.483 127.7 13.8693C128.106 14.2557 128.31 14.7614 128.314 15.3864C128.31 15.9356 128.149 16.4205 127.831 16.8409C127.517 17.2576 127.079 17.5833 126.518 17.8182C125.958 18.053 125.314 18.1705 124.587 18.1705C123.518 18.1705 122.659 17.947 122.007 17.5C121.356 17.0492 120.967 16.4223 120.842 15.6193L122.848 15.4261C122.939 15.8201 123.132 16.1174 123.428 16.3182C123.723 16.5189 124.107 16.6193 124.581 16.6193C125.07 16.6193 125.462 16.5189 125.757 16.3182C126.056 16.1174 126.206 15.8693 126.206 15.5739C126.206 15.3239 126.109 15.1174 125.916 14.9545C125.727 14.7917 125.431 14.6667 125.03 14.5795L123.541 14.267C122.704 14.0928 122.085 13.7992 121.683 13.3864C121.282 12.9697 121.083 12.4432 121.087 11.8068C121.083 11.2689 121.229 10.803 121.524 10.4091C121.823 10.0114 122.238 9.70455 122.768 9.48864C123.303 9.26894 123.918 9.15909 124.615 9.15909C125.638 9.15909 126.443 9.37689 127.03 9.8125C127.621 10.2481 127.986 10.8371 128.126 11.5795Z" fill="white"/>
</svg>
