<svg width="186" height="24" viewBox="0 0 186 24" fill="none" xmlns="http://www.w3.org/2000/svg">
<path d="M6.75 19.0312C6.75 19.5234 6.36328 19.875 5.90625 19.875H3.375C1.47656 19.875 0 18.3984 0 16.5V7.5C0 5.63672 1.47656 4.125 3.375 4.125H5.90625C6.36328 4.125 6.75 4.51172 6.75 4.96875C6.75 5.46094 6.36328 5.8125 5.90625 5.8125H3.375C2.42578 5.8125 1.6875 6.58594 1.6875 7.5V16.5C1.6875 17.4492 2.42578 18.1875 3.375 18.1875H5.90625C6.36328 18.1875 6.75 18.5742 6.75 19.0312ZM17.7539 11.4375L13.2891 6.65625C12.9727 6.30469 12.4453 6.30469 12.0938 6.62109C11.7422 6.9375 11.7422 7.46484 12.0586 7.81641L15.1875 11.1562H6.43359C5.97656 11.1562 5.625 11.543 5.625 12C5.625 12.4922 5.97656 12.8438 6.43359 12.8438H15.1523L11.9883 16.2188C11.6719 16.5703 11.6719 17.0977 12.0234 17.4141C12.2344 17.5547 12.4453 17.625 12.6211 17.625C12.832 17.625 13.043 17.5547 13.2188 17.3789L17.6836 12.5977C18.0703 12.2812 18.0703 11.7539 17.7539 11.4375Z" fill="#414651"/>
<path d="M33.1477 18V6.36364H35.2557V16.233H40.3807V18H33.1477ZM45.9261 18.1705C45.0739 18.1705 44.3352 17.983 43.7102 17.608C43.0852 17.233 42.6004 16.7083 42.2557 16.0341C41.9148 15.3598 41.7443 14.572 41.7443 13.6705C41.7443 12.7689 41.9148 11.9792 42.2557 11.3011C42.6004 10.6231 43.0852 10.0966 43.7102 9.72159C44.3352 9.34659 45.0739 9.15909 45.9261 9.15909C46.7784 9.15909 47.517 9.34659 48.142 9.72159C48.767 10.0966 49.25 10.6231 49.5909 11.3011C49.9356 11.9792 50.108 12.7689 50.108 13.6705C50.108 14.572 49.9356 15.3598 49.5909 16.0341C49.25 16.7083 48.767 17.233 48.142 17.608C47.517 17.983 46.7784 18.1705 45.9261 18.1705ZM45.9375 16.5227C46.3996 16.5227 46.786 16.3958 47.0966 16.142C47.4072 15.8845 47.6383 15.5398 47.7898 15.108C47.9451 14.6761 48.0227 14.1951 48.0227 13.6648C48.0227 13.1307 47.9451 12.6477 47.7898 12.2159C47.6383 11.7803 47.4072 11.4337 47.0966 11.1761C46.786 10.9186 46.3996 10.7898 45.9375 10.7898C45.464 10.7898 45.0701 10.9186 44.7557 11.1761C44.4451 11.4337 44.2121 11.7803 44.0568 12.2159C43.9053 12.6477 43.8295 13.1307 43.8295 13.6648C43.8295 14.1951 43.9053 14.6761 44.0568 15.108C44.2121 15.5398 44.4451 15.8845 44.7557 16.142C45.0701 16.3958 45.464 16.5227 45.9375 16.5227ZM55.6491 21.4545C54.9105 21.4545 54.276 21.3542 53.7457 21.1534C53.2154 20.9564 52.7893 20.6913 52.4673 20.358C52.1454 20.0246 51.9219 19.6553 51.7969 19.25L53.6491 18.8011C53.7325 18.9716 53.8537 19.1402 54.0128 19.3068C54.1719 19.4773 54.3859 19.6174 54.6548 19.7273C54.9276 19.8409 55.2704 19.8977 55.6832 19.8977C56.2666 19.8977 56.7495 19.7557 57.1321 19.4716C57.5147 19.1913 57.706 18.7292 57.706 18.0852V16.4318H57.6037C57.4976 16.6439 57.3423 16.8617 57.1378 17.0852C56.937 17.3087 56.67 17.4962 56.3366 17.6477C56.0071 17.7992 55.5923 17.875 55.0923 17.875C54.4219 17.875 53.8139 17.7178 53.2685 17.4034C52.7268 17.0852 52.295 16.6117 51.973 15.983C51.6548 15.3504 51.4957 14.5587 51.4957 13.608C51.4957 12.6496 51.6548 11.8409 51.973 11.1818C52.295 10.5189 52.7287 10.017 53.2741 9.67614C53.8196 9.33144 54.4276 9.15909 55.098 9.15909C55.6094 9.15909 56.0298 9.24621 56.3594 9.42045C56.6927 9.59091 56.9579 9.79735 57.1548 10.0398C57.3518 10.2784 57.5014 10.5038 57.6037 10.7159H57.7173V9.27273H59.7457V18.142C59.7457 18.8883 59.5677 19.5057 59.2116 19.9943C58.8556 20.483 58.3688 20.8485 57.7514 21.0909C57.134 21.3333 56.4332 21.4545 55.6491 21.4545ZM55.6662 16.2614C56.1018 16.2614 56.473 16.1553 56.7798 15.9432C57.0866 15.7311 57.3196 15.4261 57.4787 15.0284C57.6378 14.6307 57.7173 14.1534 57.7173 13.5966C57.7173 13.0473 57.6378 12.5663 57.4787 12.1534C57.3234 11.7405 57.0923 11.4205 56.7855 11.1932C56.4825 10.9621 56.1094 10.8466 55.6662 10.8466C55.2079 10.8466 54.8253 10.9659 54.5185 11.2045C54.2116 11.4432 53.9806 11.7708 53.8253 12.1875C53.67 12.6004 53.5923 13.0701 53.5923 13.5966C53.5923 14.1307 53.67 14.5985 53.8253 15C53.9844 15.3977 54.2173 15.7083 54.5241 15.9318C54.8348 16.1515 55.2154 16.2614 55.6662 16.2614ZM65.6605 18.1705C64.8082 18.1705 64.0696 17.983 63.4446 17.608C62.8196 17.233 62.3348 16.7083 61.9901 16.0341C61.6491 15.3598 61.4787 14.572 61.4787 13.6705C61.4787 12.7689 61.6491 11.9792 61.9901 11.3011C62.3348 10.6231 62.8196 10.0966 63.4446 9.72159C64.0696 9.34659 64.8082 9.15909 65.6605 9.15909C66.5128 9.15909 67.2514 9.34659 67.8764 9.72159C68.5014 10.0966 68.9844 10.6231 69.3253 11.3011C69.67 11.9792 69.8423 12.7689 69.8423 13.6705C69.8423 14.572 69.67 15.3598 69.3253 16.0341C68.9844 16.7083 68.5014 17.233 67.8764 17.608C67.2514 17.983 66.5128 18.1705 65.6605 18.1705ZM65.6719 16.5227C66.134 16.5227 66.5204 16.3958 66.831 16.142C67.1416 15.8845 67.3726 15.5398 67.5241 15.108C67.6795 14.6761 67.7571 14.1951 67.7571 13.6648C67.7571 13.1307 67.6795 12.6477 67.5241 12.2159C67.3726 11.7803 67.1416 11.4337 66.831 11.1761C66.5204 10.9186 66.134 10.7898 65.6719 10.7898C65.1984 10.7898 64.8045 10.9186 64.4901 11.1761C64.1795 11.4337 63.9465 11.7803 63.7912 12.2159C63.6397 12.6477 63.5639 13.1307 63.5639 13.6648C63.5639 14.1951 63.6397 14.6761 63.7912 15.108C63.9465 15.5398 64.1795 15.8845 64.4901 16.142C64.8045 16.3958 65.1984 16.5227 65.6719 16.5227ZM77.1506 14.3295V9.27273H79.2074V18H77.2131V16.4489H77.1222C76.9252 16.9375 76.6013 17.3371 76.1506 17.6477C75.7036 17.9583 75.1525 18.1136 74.4972 18.1136C73.9252 18.1136 73.4195 17.9867 72.9801 17.733C72.5445 17.4754 72.2036 17.1023 71.9574 16.6136C71.7112 16.1212 71.5881 15.5265 71.5881 14.8295V9.27273H73.6449V14.5114C73.6449 15.0644 73.7964 15.5038 74.0994 15.8295C74.4025 16.1553 74.8002 16.3182 75.2926 16.3182C75.5956 16.3182 75.8892 16.2443 76.1733 16.0966C76.4574 15.9489 76.6903 15.7292 76.8722 15.4375C77.0578 15.142 77.1506 14.7727 77.1506 14.3295ZM85.6804 9.27273V10.8636H80.6634V9.27273H85.6804ZM81.902 7.18182H83.9588V15.375C83.9588 15.6515 84.0005 15.8636 84.0838 16.0114C84.1709 16.1553 84.2846 16.2538 84.4247 16.3068C84.5649 16.3598 84.7202 16.3864 84.8906 16.3864C85.0194 16.3864 85.1368 16.3769 85.2429 16.358C85.3527 16.339 85.4361 16.322 85.4929 16.3068L85.8395 17.9148C85.7296 17.9527 85.5724 17.9943 85.3679 18.0398C85.1671 18.0852 84.9209 18.1117 84.6293 18.1193C84.1141 18.1345 83.6501 18.0568 83.2372 17.8864C82.8243 17.7121 82.4967 17.4432 82.2543 17.0795C82.0156 16.7159 81.8982 16.2614 81.902 15.7159V7.18182Z" fill="#414651"/>
</svg>
