<svg width="186" height="24" viewBox="0 0 186 24" fill="none" xmlns="http://www.w3.org/2000/svg">
<path d="M15.75 15.375C15.75 16.1133 15.2578 16.7461 14.625 16.9922V19.3125H14.9062C15.3633 19.3125 15.75 19.6992 15.75 20.1562C15.75 20.6484 15.3633 21 14.9062 21H2.8125C1.23047 21 0 19.7695 0 18.1875V5.8125C0 4.26562 1.23047 3 2.8125 3H14.0625C14.9766 3 15.75 3.77344 15.75 4.6875V15.375ZM12.9375 19.3125V17.0625H2.8125C2.17969 17.0625 1.6875 17.5898 1.6875 18.1875C1.6875 18.8203 2.17969 19.3125 2.8125 19.3125H12.9375ZM14.0625 15.375V4.6875H2.8125C2.17969 4.6875 1.6875 5.21484 1.6875 5.8125V15.6211C2.00391 15.4805 2.39062 15.375 2.8125 15.375H14.0625ZM5.34375 8.625C4.85156 8.625 4.5 8.27344 4.5 7.78125C4.5 7.32422 4.85156 6.9375 5.34375 6.9375H11.5312C11.9883 6.9375 12.375 7.32422 12.375 7.78125C12.375 8.27344 11.9883 8.625 11.5312 8.625H5.34375ZM5.34375 11.4375C4.85156 11.4375 4.5 11.0859 4.5 10.5938C4.5 10.1367 4.85156 9.75 5.34375 9.75H11.5312C11.9883 9.75 12.375 10.1367 12.375 10.5938C12.375 11.0859 11.9883 11.4375 11.5312 11.4375H5.34375Z" fill="#414651"/>
<path d="M33.1477 18V6.36364H35.2557V11.2898H40.6477V6.36364H42.7614V18H40.6477V13.0568H35.2557V18H33.1477ZM48.7699 18.1705C47.9176 18.1705 47.179 17.983 46.554 17.608C45.929 17.233 45.4441 16.7083 45.0994 16.0341C44.7585 15.3598 44.5881 14.572 44.5881 13.6705C44.5881 12.7689 44.7585 11.9792 45.0994 11.3011C45.4441 10.6231 45.929 10.0966 46.554 9.72159C47.179 9.34659 47.9176 9.15909 48.7699 9.15909C49.6222 9.15909 50.3608 9.34659 50.9858 9.72159C51.6108 10.0966 52.0938 10.6231 52.4347 11.3011C52.7794 11.9792 52.9517 12.7689 52.9517 13.6705C52.9517 14.572 52.7794 15.3598 52.4347 16.0341C52.0938 16.7083 51.6108 17.233 50.9858 17.608C50.3608 17.983 49.6222 18.1705 48.7699 18.1705ZM48.7812 16.5227C49.2434 16.5227 49.6297 16.3958 49.9403 16.142C50.2509 15.8845 50.482 15.5398 50.6335 15.108C50.7888 14.6761 50.8665 14.1951 50.8665 13.6648C50.8665 13.1307 50.7888 12.6477 50.6335 12.2159C50.482 11.7803 50.2509 11.4337 49.9403 11.1761C49.6297 10.9186 49.2434 10.7898 48.7812 10.7898C48.3078 10.7898 47.9138 10.9186 47.5994 11.1761C47.2888 11.4337 47.0559 11.7803 46.9006 12.2159C46.7491 12.6477 46.6733 13.1307 46.6733 13.6648C46.6733 14.1951 46.7491 14.6761 46.9006 15.108C47.0559 15.5398 47.2888 15.8845 47.5994 16.142C47.9138 16.3958 48.3078 16.5227 48.7812 16.5227ZM56.2486 18L53.7827 9.27273H55.8793L57.4134 15.4091H57.4929L59.0611 9.27273H61.1349L62.7031 15.375H62.7884L64.2997 9.27273H66.402L63.9304 18H61.7884L60.152 12.1023H60.0327L58.3963 18H56.2486ZM76.1648 9.27273V10.8636H71.1477V9.27273H76.1648ZM72.3864 7.18182H74.4432V15.375C74.4432 15.6515 74.4848 15.8636 74.5682 16.0114C74.6553 16.1553 74.7689 16.2538 74.9091 16.3068C75.0492 16.3598 75.2045 16.3864 75.375 16.3864C75.5038 16.3864 75.6212 16.3769 75.7273 16.358C75.8371 16.339 75.9205 16.322 75.9773 16.3068L76.3239 17.9148C76.214 17.9527 76.0568 17.9943 75.8523 18.0398C75.6515 18.0852 75.4053 18.1117 75.1136 18.1193C74.5985 18.1345 74.1345 18.0568 73.7216 17.8864C73.3087 17.7121 72.9811 17.4432 72.7386 17.0795C72.5 16.7159 72.3826 16.2614 72.3864 15.7159V7.18182ZM81.598 18.1705C80.7457 18.1705 80.0071 17.983 79.3821 17.608C78.7571 17.233 78.2723 16.7083 77.9276 16.0341C77.5866 15.3598 77.4162 14.572 77.4162 13.6705C77.4162 12.7689 77.5866 11.9792 77.9276 11.3011C78.2723 10.6231 78.7571 10.0966 79.3821 9.72159C80.0071 9.34659 80.7457 9.15909 81.598 9.15909C82.4503 9.15909 83.1889 9.34659 83.8139 9.72159C84.4389 10.0966 84.9219 10.6231 85.2628 11.3011C85.6075 11.9792 85.7798 12.7689 85.7798 13.6705C85.7798 14.572 85.6075 15.3598 85.2628 16.0341C84.9219 16.7083 84.4389 17.233 83.8139 17.608C83.1889 17.983 82.4503 18.1705 81.598 18.1705ZM81.6094 16.5227C82.0715 16.5227 82.4579 16.3958 82.7685 16.142C83.0791 15.8845 83.3101 15.5398 83.4616 15.108C83.617 14.6761 83.6946 14.1951 83.6946 13.6648C83.6946 13.1307 83.617 12.6477 83.4616 12.2159C83.3101 11.7803 83.0791 11.4337 82.7685 11.1761C82.4579 10.9186 82.0715 10.7898 81.6094 10.7898C81.1359 10.7898 80.742 10.9186 80.4276 11.1761C80.117 11.4337 79.884 11.7803 79.7287 12.2159C79.5772 12.6477 79.5014 13.1307 79.5014 13.6648C79.5014 14.1951 79.5772 14.6761 79.7287 15.108C79.884 15.5398 80.117 15.8845 80.4276 16.142C80.742 16.3958 81.1359 16.5227 81.6094 16.5227ZM98.9205 6.36364H101.028V13.9659C101.028 14.7992 100.831 15.5322 100.438 16.1648C100.047 16.7973 99.4981 17.2917 98.7898 17.6477C98.0814 18 97.2538 18.1761 96.3068 18.1761C95.3561 18.1761 94.5265 18 93.8182 17.6477C93.1098 17.2917 92.5606 16.7973 92.1705 16.1648C91.7803 15.5322 91.5852 14.7992 91.5852 13.9659V6.36364H93.6932V13.7898C93.6932 14.2746 93.7992 14.7064 94.0114 15.0852C94.2273 15.464 94.5303 15.7614 94.9205 15.9773C95.3106 16.1894 95.7727 16.2955 96.3068 16.2955C96.8409 16.2955 97.303 16.1894 97.6932 15.9773C98.0871 15.7614 98.3902 15.464 98.6023 15.0852C98.8144 14.7064 98.9205 14.2746 98.9205 13.7898V6.36364ZM110.126 11.5795L108.251 11.7841C108.198 11.5947 108.106 11.4167 107.973 11.25C107.844 11.0833 107.67 10.9489 107.45 10.8466C107.231 10.7443 106.962 10.6932 106.643 10.6932C106.215 10.6932 105.856 10.786 105.564 10.9716C105.276 11.1572 105.134 11.3977 105.138 11.6932C105.134 11.947 105.227 12.1534 105.416 12.3125C105.609 12.4716 105.928 12.6023 106.371 12.7045L107.859 13.0227C108.685 13.2008 109.299 13.483 109.7 13.8693C110.106 14.2557 110.31 14.7614 110.314 15.3864C110.31 15.9356 110.149 16.4205 109.831 16.8409C109.517 17.2576 109.079 17.5833 108.518 17.8182C107.958 18.053 107.314 18.1705 106.587 18.1705C105.518 18.1705 104.659 17.947 104.007 17.5C103.356 17.0492 102.967 16.4223 102.842 15.6193L104.848 15.4261C104.939 15.8201 105.132 16.1174 105.428 16.3182C105.723 16.5189 106.107 16.6193 106.581 16.6193C107.07 16.6193 107.462 16.5189 107.757 16.3182C108.056 16.1174 108.206 15.8693 108.206 15.5739C108.206 15.3239 108.109 15.1174 107.916 14.9545C107.727 14.7917 107.431 14.6667 107.03 14.5795L105.541 14.267C104.704 14.0928 104.085 13.7992 103.683 13.3864C103.282 12.9697 103.083 12.4432 103.087 11.8068C103.083 11.2689 103.229 10.803 103.524 10.4091C103.823 10.0114 104.238 9.70455 104.768 9.48864C105.303 9.26894 105.918 9.15909 106.615 9.15909C107.638 9.15909 108.443 9.37689 109.03 9.8125C109.621 10.2481 109.986 10.8371 110.126 11.5795ZM115.874 18.1705C114.999 18.1705 114.243 17.9886 113.607 17.625C112.974 17.2576 112.487 16.7386 112.146 16.0682C111.805 15.3939 111.635 14.6004 111.635 13.6875C111.635 12.7898 111.805 12.0019 112.146 11.3239C112.491 10.642 112.972 10.1117 113.589 9.73295C114.207 9.35038 114.932 9.15909 115.766 9.15909C116.304 9.15909 116.811 9.24621 117.288 9.42045C117.769 9.59091 118.194 9.85606 118.561 10.2159C118.932 10.5758 119.224 11.0341 119.436 11.5909C119.648 12.1439 119.754 12.803 119.754 13.5682V14.1989H112.601V12.8125H117.783C117.779 12.4186 117.694 12.0682 117.527 11.7614C117.36 11.4508 117.127 11.2064 116.828 11.0284C116.533 10.8504 116.188 10.7614 115.794 10.7614C115.374 10.7614 115.004 10.8636 114.686 11.0682C114.368 11.2689 114.12 11.5341 113.942 11.8636C113.768 12.1894 113.679 12.5473 113.675 12.9375V14.1477C113.675 14.6553 113.768 15.0909 113.953 15.4545C114.139 15.8144 114.398 16.0909 114.732 16.2841C115.065 16.4735 115.455 16.5682 115.902 16.5682C116.201 16.5682 116.472 16.5265 116.714 16.4432C116.957 16.3561 117.167 16.2292 117.345 16.0625C117.523 15.8958 117.658 15.6894 117.749 15.4432L119.669 15.6591C119.548 16.1667 119.317 16.6098 118.976 16.9886C118.639 17.3636 118.207 17.6553 117.68 17.8636C117.154 18.0682 116.552 18.1705 115.874 18.1705Z" fill="#414651"/>
</svg>
